{"asset":{"generator":"Khronos glTF Blender I/O v1.6.16","version":"2.0"},"scene":0,"scenes":[{"name":"Scene","nodes":[24]}],"nodes":[{"name":"Foot.L","rotation":[6.612836386921117e-06,0.41113513708114624,0.9115745425224304,3.0694598081026925e-06],"scale":[1,1.0000001192092896,1.0000001192092896],"translation":[0.2654249668121338,0.057185567915439606,-0.457008957862854]},{"name":"Head","rotation":[-3.2585998344103473e-09,-0.0002754804154392332,-1.8468104823199383e-09,1],"scale":[0.9999999403953552,1,0.9999999403953552],"translation":[-1.4879462106875962e-08,0.1334977149963379,-7.784292321844077e-09]},{"children":[1],"name":"Neck","rotation":[-0.03198619931936264,2.4195982405217364e-05,0.00013982450764160603,0.999488353729248],"scale":[0.9999999403953552,0.9999998211860657,1],"translation":[1.4878088983039106e-08,0.4768909513950348,-1.38522491255344e-08]},{"name":"Fist.L","rotation":[0.00936207640916109,0.17389044165611267,-0.013174599036574364,0.9846324920654297],"scale":[1,1,1.0000001192092896],"translation":[2.498967477393421e-09,0.42534732818603516,1.355298362426538e-08]},{"children":[3],"name":"LowerArm.L","rotation":[0.10180187970399857,0.18688377737998962,-0.2694894075393677,0.9391945004463196],"translation":[4.9610671126743e-10,0.5282712578773499,-1.7404009611254878e-07]},{"children":[4],"name":"UpperArm.L","rotation":[-0.13879749178886414,-0.4089896082878113,-0.7925387024879456,0.4305172860622406],"translation":[-1.669050897490365e-09,0.2595316767692566,-2.1764886781738824e-08]},{"children":[5],"name":"Shoulder.L","rotation":[-0.030447853729128838,-0.01368186715990305,-0.4096798002719879,0.9116184711456299],"translation":[0.13320158421993256,0.14084097743034363,0.013521397486329079]},{"name":"Fist.R","rotation":[0.009362096898257732,-0.17389042675495148,0.013174592517316341,0.9846323728561401],"scale":[0.9999999403953552,0.9999999403953552,1],"translation":[-3.323440722624582e-08,0.42534708976745605,2.518810333640431e-07]},{"children":[7],"name":"LowerArm.R","rotation":[0.10180199891328812,-0.186883807182312,0.2694894075393677,0.9391945004463196],"scale":[1.0000001192092896,1,1],"translation":[2.1681771045223286e-08,0.5282711386680603,9.934440470260597e-08]},{"children":[8],"name":"UpperArm.R","rotation":[-0.1309647113084793,0.39627546072006226,0.8162320256233215,0.39947378635406494],"translation":[2.2122512177702447e-07,0.25953176617622375,2.982969249387679e-08]},{"children":[9],"name":"Shoulder.R","rotation":[-0.03044760599732399,0.013682461343705654,0.4096798300743103,0.9116184711456299],"scale":[0.9999999403953552,0.9999999403953552,0.9999998807907104],"translation":[-0.13313041627407074,0.14075449109077454,0.013461224734783173]},{"children":[2,6,10],"name":"Torso","rotation":[-0.004197635687887669,-0.0765695795416832,0.050842490047216415,0.9957583546638489],"scale":[1,1,0.9999999403953552],"translation":[-3.508660029183375e-11,0.2985784411430359,-8.124691142086249e-09]},{"children":[11],"name":"Abdomen","rotation":[0.07463376969099045,4.370121757801826e-07,4.616316573446966e-08,0.9972110390663147],"scale":[1.0000001192092896,1.0000001192092896,1.0000001192092896],"translation":[2.667343776407982e-11,0.3143380284309387,1.4015435922942743e-08]},{"children":[12],"name":"Hips","rotation":[-0.05076882615685463,-2.6754460691336135e-07,-2.273327304180839e-08,0.9987104535102844],"scale":[1.0000001192092896,1.000000238418579,1.0000001192092896],"translation":[-0.0014799340860918164,-0.06677472591400146,-0.04624227434396744]},{"name":"LowerLeg.L","rotation":[0.2897944450378418,0.003143777372315526,0.009313715621829033,0.9570385217666626],"scale":[1.0000001192092896,1.0000046491622925,0.999995768070221],"translation":[-4.26644568563006e-08,0.45380493998527527,-1.3521896491397456e-08]},{"children":[14],"name":"UpperLeg.L","rotation":[-0.9927823543548584,-0.01138693280518055,-0.0012119243619963527,0.11938224732875824],"scale":[0.9999978542327881,0.9999982714653015,0.9999493360519409],"translation":[0.25302907824516296,-0.016702113673090935,-0.05592375993728638]},{"name":"LowerLeg.R","rotation":[0.2064564973115921,-0.0023315423168241978,-0.009549516253173351,0.9784064292907715],"scale":[1.000000238418579,1.0000001192092896,0.9999984502792358],"translation":[7.482751129828102e-08,0.4538048207759857,-4.099929729051155e-09]},{"children":[16],"name":"UpperLeg.R","rotation":[0.9042739868164062,-0.011531723663210869,0.005247355904430151,0.42676475644111633],"scale":[0.9999979138374329,0.9999969005584717,0.9999500513076782],"translation":[-0.25471219420433044,-0.016701994463801384,-0.05592413619160652]},{"children":[13,15,17],"name":"Body","rotation":[-0.0005134227685630322,0.0026996894739568233,2.4635844965814613e-05,0.9999962449073792],"scale":[0.9999999403953552,0.9999999403953552,0.9999999403953552],"translation":[0.0034564111847430468,0.8677315711975098,0.09881485998630524]},{"name":"PoleTarget.L","rotation":[-3.5527037261633707e-15,1.1920936060505483e-07,0,1],"scale":[1,0.9999999403953552,0.9999999403953552],"translation":[0.2619941532611847,0.7245326638221741,0.9631469249725342]},{"name":"Foot.R","rotation":[3.880511940224096e-06,-0.8775460124015808,-0.4794924259185791,6.3112383941188455e-06],"scale":[1,1.0000001192092896,1],"translation":[-0.2628020942211151,0.08970806747674942,0.6268081068992615]},{"name":"PoleTarget.R","rotation":[-3.552723843195868e-15,-5.960464477539062e-07,3.3881317890172014e-21,1],"scale":[1,0.9999999403953552,0.9999999403953552],"translation":[-0.25937214493751526,0.7245326638221741,0.9631466865539551]},{"children":[0,18,19,20,21],"name":"Bone","rotation":[-2.9802322387695312e-08,2.3841855067985307e-07,8.470329472543003e-22,1],"scale":[1,0.9999998807907104,0.9999998807907104],"translation":[-0.0013114692410454154,-0.0024153697304427624,-0.00011468418961158022]},{"mesh":0,"name":"Body","skin":0},{"children":[23,22],"name":"CharacterArmature"}],"materials":[{"doubleSided":true,"name":"Skin","pbrMetallicRoughness":{"baseColorFactor":[0.013410447165369987,0.013410447165369987,0.013410447165369987,1],"metallicFactor":0,"roughnessFactor":0.5}},{"doubleSided":true,"name":"Clothes","pbrMetallicRoughness":{"baseColorFactor":[0.5595953464508057,0.5595953464508057,0.5595953464508057,1],"metallicFactor":0,"roughnessFactor":0.5}},{"doubleSided":true,"name":"Band","pbrMetallicRoughness":{"baseColorFactor":[0.23301194608211517,0.03575469180941582,0.02080906368792057,1],"metallicFactor":0,"roughnessFactor":0.5}},{"doubleSided":true,"name":"DarkClothes","pbrMetallicRoughness":{"baseColorFactor":[0.334319531917572,0.334319531917572,0.334319531917572,1],"metallicFactor":0,"roughnessFactor":0.5}},{"doubleSided":true,"name":"Face","pbrMetallicRoughness":{"baseColorFactor":[1,1,0.9403874278068542,1],"metallicFactor":0,"roughnessFactor":0.5}},{"doubleSided":true,"name":"Hair","pbrMetallicRoughness":{"baseColorFactor":[0.33245155215263367,0.33245155215263367,0.33245155215263367,1],"metallicFactor":0,"roughnessFactor":0.5}}],"meshes":[{"name":"Cube.004","primitives":[{"attributes":{"POSITION":0,"NORMAL":1,"JOINTS_0":2,"WEIGHTS_0":3},"indices":4,"material":0},{"attributes":{"POSITION":5,"NORMAL":6,"JOINTS_0":7,"WEIGHTS_0":8},"indices":9,"material":1},{"attributes":{"POSITION":10,"NORMAL":11,"JOINTS_0":12,"WEIGHTS_0":13},"indices":14,"material":2},{"attributes":{"POSITION":15,"NORMAL":16,"JOINTS_0":17,"WEIGHTS_0":18},"indices":19,"material":3},{"attributes":{"POSITION":20,"NORMAL":21,"JOINTS_0":22,"WEIGHTS_0":23},"indices":24,"material":4},{"attributes":{"POSITION":25,"NORMAL":26,"JOINTS_0":27,"WEIGHTS_0":28},"indices":29,"material":5}]}],"skins":[{"inverseBindMatrices":30,"joints":[22,0,18,13,12,11,2,1,6,5,4,3,10,9,8,7,15,14,17,16,19,20,21],"name":"CharacterArmature"}],"accessors":[{"bufferView":0,"componentType":5126,"count":2224,"max":[1.619834065437317,3.1280739307403564,0.4916224181652069],"min":[-1.619834065437317,-0.018590589985251427,-0.4916224181652069],"type":"VEC3"},{"bufferView":1,"componentType":5126,"count":2224,"type":"VEC3"},{"bufferView":2,"componentType":5121,"count":2224,"type":"VEC4"},{"bufferView":3,"componentType":5126,"count":2224,"type":"VEC4"},{"bufferView":4,"componentType":5123,"count":3336,"type":"SCALAR"},{"bufferView":5,"componentType":5126,"count":1248,"max":[1.2201474905014038,2.1098849773406982,0.27266842126846313],"min":[-1.2201474905014038,1.1651899814605713,-0.3531709909439087],"type":"VEC3"},{"bufferView":6,"componentType":5126,"count":1248,"type":"VEC3"},{"bufferView":7,"componentType":5121,"count":1248,"type":"VEC4"},{"bufferView":8,"componentType":5126,"count":1248,"type":"VEC4"},{"bufferView":9,"componentType":5123,"count":1860,"type":"SCALAR"},{"bufferView":10,"componentType":5126,"count":168,"max":[0.20295089483261108,2.1190590858459473,0.20243613421916962],"min":[-0.20295089483261108,1.9594365358352661,-0.11861226707696915],"type":"VEC3"},{"bufferView":11,"componentType":5126,"count":168,"type":"VEC3"},{"bufferView":12,"componentType":5121,"count":168,"type":"VEC4"},{"bufferView":13,"componentType":5126,"count":168,"type":"VEC4"},{"bufferView":14,"componentType":5123,"count":252,"type":"SCALAR"},{"bufferView":15,"componentType":5126,"count":852,"max":[0.4079950749874115,1.2064769268035889,0.21221479773521423],"min":[-0.4079950749874115,0.16875597834587097,-0.3195708096027374],"type":"VEC3"},{"bufferView":16,"componentType":5126,"count":852,"type":"VEC3"},{"bufferView":17,"componentType":5121,"count":852,"type":"VEC4"},{"bufferView":18,"componentType":5126,"count":852,"type":"VEC4"},{"bufferView":19,"componentType":5123,"count":1260,"type":"SCALAR"},{"bufferView":20,"componentType":5126,"count":330,"max":[0.3687567114830017,2.758138418197632,0.5015114545822144],"min":[-0.3687567114830017,2.4704513549804688,0.3853009343147278],"type":"VEC3"},{"bufferView":21,"componentType":5126,"count":330,"type":"VEC3"},{"bufferView":22,"componentType":5121,"count":330,"type":"VEC4"},{"bufferView":23,"componentType":5126,"count":330,"type":"VEC4"},{"bufferView":24,"componentType":5123,"count":960,"type":"SCALAR"},{"bufferView":25,"componentType":5126,"count":3192,"max":[0.5377306938171387,3.185966968536377,0.5773398280143738],"min":[-0.5377317667007446,2.3033406734466553,-0.5818421244621277],"type":"VEC3"},{"bufferView":26,"componentType":5126,"count":3192,"type":"VEC3"},{"bufferView":27,"componentType":5121,"count":3192,"type":"VEC4"},{"bufferView":28,"componentType":5126,"count":3192,"type":"VEC4"},{"bufferView":29,"componentType":5123,"count":8688,"type":"SCALAR"},{"bufferView":30,"componentType":5126,"count":23,"type":"MAT4"}],"bufferViews":[{"buffer":0,"byteLength":26688,"byteOffset":0},{"buffer":0,"byteLength":26688,"byteOffset":26688},{"buffer":0,"byteLength":8896,"byteOffset":53376},{"buffer":0,"byteLength":35584,"byteOffset":62272},{"buffer":0,"byteLength":6672,"byteOffset":97856},{"buffer":0,"byteLength":14976,"byteOffset":104528},{"buffer":0,"byteLength":14976,"byteOffset":119504},{"buffer":0,"byteLength":4992,"byteOffset":134480},{"buffer":0,"byteLength":19968,"byteOffset":139472},{"buffer":0,"byteLength":3720,"byteOffset":159440},{"buffer":0,"byteLength":2016,"byteOffset":163160},{"buffer":0,"byteLength":2016,"byteOffset":165176},{"buffer":0,"byteLength":672,"byteOffset":167192},{"buffer":0,"byteLength":2688,"byteOffset":167864},{"buffer":0,"byteLength":504,"byteOffset":170552},{"buffer":0,"byteLength":10224,"byteOffset":171056},{"buffer":0,"byteLength":10224,"byteOffset":181280},{"buffer":0,"byteLength":3408,"byteOffset":191504},{"buffer":0,"byteLength":13632,"byteOffset":194912},{"buffer":0,"byteLength":2520,"byteOffset":208544},{"buffer":0,"byteLength":3960,"byteOffset":211064},{"buffer":0,"byteLength":3960,"byteOffset":215024},{"buffer":0,"byteLength":1320,"byteOffset":218984},{"buffer":0,"byteLength":5280,"byteOffset":220304},{"buffer":0,"byteLength":1920,"byteOffset":225584},{"buffer":0,"byteLength":38304,"byteOffset":227504},{"buffer":0,"byteLength":38304,"byteOffset":265808},{"buffer":0,"byteLength":12768,"byteOffset":304112},{"buffer":0,"byteLength":51072,"byteOffset":316880},{"buffer":0,"byteLength":17376,"byteOffset":367952},{"buffer":0,"byteLength":1472,"byteOffset":385328}],"buffers":[{"byteLength":386800,"uri":"data:application/octet-stream;base64,"}]}