{"asset":{"generator":"Khronos glTF Blender I/O v1.6.16","version":"2.0"},"scene":0,"scenes":[{"name":"Scene","nodes":[24]}],"nodes":[{"name":"Foot.L","rotation":[6.612836386921117e-06,0.41113513708114624,0.9115745425224304,3.069460035476368e-06],"scale":[1,1.0000001192092896,1.0000001192092896],"translation":[0.265424907207489,0.057185567915439606,-0.457008957862854]},{"name":"Head","rotation":[-2.3288806438870324e-09,-0.00027546961791813374,4.820089327672861e-10,1],"scale":[1.0000001192092896,1.0000001192092896,0.9999999403953552],"translation":[-3.024987194066853e-08,0.13349753618240356,-1.2735001941877044e-09]},{"children":[1],"name":"Neck","rotation":[-0.03198620676994324,2.420335113129113e-05,0.00013981798838358372,0.9994884133338928],"scale":[0.9999997615814209,0.9999996423721313,0.9999999403953552],"translation":[1.348109801568853e-08,0.47689083218574524,-1.4369846645934103e-08]},{"name":"Fist.L","rotation":[0.00936204008758068,0.17389044165611267,-0.013174613937735558,0.9846324920654297],"scale":[1.000000238418579,0.9999998807907104,0.9999998807907104],"translation":[-1.2967918294748415e-08,0.4253474175930023,-3.038805473920547e-08]},{"children":[3],"name":"LowerArm.L","rotation":[0.10180187225341797,0.18688377737998962,-0.2694894075393677,0.9391945004463196],"scale":[1.0000001192092896,1.0000001192092896,1.0000001192092896],"translation":[-3.5639642348428424e-09,0.5282713174819946,7.942502122659789e-08]},{"children":[4],"name":"UpperArm.L","rotation":[-0.13879749178886414,-0.4089895784854889,-0.7925387024879456,0.4305173456668854],"scale":[0.9999998211860657,0.9999998807907104,0.9999998211860657],"translation":[3.5882624871419466e-08,0.2595314383506775,-1.2155756401455164e-09]},{"children":[5],"name":"Shoulder.L","rotation":[-0.03044784627854824,-0.013681882992386818,-0.4096797704696655,0.9116184711456299],"scale":[0.9999999403953552,0.9999998807907104,1],"translation":[0.13320158421993256,0.14084099233150482,0.013521402142941952]},{"name":"Fist.R","rotation":[0.00936208851635456,-0.17389041185379028,0.013174604624509811,0.9846323728561401],"scale":[0.9999998211860657,1.0000001192092896,1],"translation":[-1.3697746048535464e-08,0.42534711956977844,1.7877138702715456e-07]},{"children":[7],"name":"LowerArm.R","rotation":[0.10180199891328812,-0.1868838220834732,0.2694894075393677,0.9391945004463196],"scale":[0.9999999403953552,1,0.9999999403953552],"translation":[-4.42418155444102e-08,0.5282710194587708,-3.6813712966932144e-08]},{"children":[8],"name":"UpperArm.R","rotation":[-0.13096469640731812,0.3962755501270294,0.8162320256233215,0.39947378635406494],"scale":[1.000000238418579,1.0000001192092896,1.000000238418579],"translation":[-2.1520395421248395e-07,0.25953155755996704,-1.9224906111503515e-09]},{"children":[9],"name":"Shoulder.R","rotation":[-0.03044760972261429,0.013682462275028229,0.4096798002719879,0.9116184711456299],"scale":[0.9999999403953552,0.9999997019767761,1],"translation":[-0.13313028216362,0.14075471460819244,0.01346120797097683]},{"children":[2,6,10],"name":"Torso","rotation":[-0.004197639413177967,-0.07656959444284439,0.05084248632192612,0.9957582950592041],"scale":[1.0000001192092896,1.0000001192092896,1.0000001192092896],"translation":[-5.984134628794768e-12,0.2985785901546478,-8.06527467034357e-09]},{"children":[11],"name":"Abdomen","rotation":[0.07463377714157104,4.3666662463692774e-07,4.610865644849582e-08,0.9972110390663147],"scale":[0.9999998211860657,1,1],"translation":[5.574373254657594e-11,0.31433814764022827,-1.3374190643844486e-09]},{"children":[12],"name":"Hips","rotation":[-0.05076882243156433,-2.674304369065794e-07,-2.27531469221276e-08,0.9987104535102844],"scale":[1.0000001192092896,1,1],"translation":[-0.0014799339696764946,-0.06677481532096863,-0.04624226689338684]},{"name":"LowerLeg.L","rotation":[0.28979647159576416,0.0031437790021300316,0.009313690476119518,0.9570378661155701],"scale":[1.0000007152557373,1.000010371208191,1.0000100135803223],"translation":[-5.0058549305731503e-08,0.45380502939224243,1.1918637632390983e-08]},{"children":[14],"name":"UpperLeg.L","rotation":[-0.992782473564148,-0.011386942118406296,-0.0012119284365326166,0.11938098818063736],"scale":[0.9999979138374329,0.9999985098838806,0.9999494552612305],"translation":[0.2530290186405182,-0.016702136024832726,-0.05592375993728638]},{"name":"LowerLeg.R","rotation":[0.20645903050899506,-0.0023315397556871176,-0.00954949390143156,0.9784058928489685],"scale":[1.0000007152557373,1.0000039339065552,1.0000133514404297],"translation":[-6.449705214350843e-09,0.4538048207759857,4.616378035393609e-08]},{"children":[16],"name":"UpperLeg.R","rotation":[0.904273271560669,-0.011531736701726913,0.00524733355268836,0.42676618695259094],"scale":[0.9999979138374329,0.9999969005584717,0.9999499917030334],"translation":[-0.25471219420433044,-0.016702227294445038,-0.05592411011457443]},{"children":[13,15,17],"name":"Body","rotation":[-0.0005134228267706931,0.002699689706787467,2.4635846784804016e-05,0.9999963045120239],"scale":[0.9999999403953552,1.0000001192092896,1.0000001192092896],"translation":[0.0034564111847430468,0.8677315711975098,0.09881487488746643]},{"name":"PoleTarget.L","rotation":[-3.552693350009767e-15,1.1920937481590954e-07,-8.47033149202692e-22,1],"scale":[1,1.0000001192092896,1.0000001192092896],"translation":[0.2619941830635071,0.7245326638221741,0.963146984577179]},{"name":"Foot.R","rotation":[3.880512394971447e-06,-0.8775460124015808,-0.4794924259185791,6.311237484624144e-06],"scale":[1,1.0000001192092896,1],"translation":[-0.26280197501182556,0.08970806747674942,0.6268080472946167]},{"name":"PoleTarget.R","rotation":[-3.552734007591235e-15,-5.960464477539062e-07,3.388132596810768e-21,1],"scale":[1,1.0000001192092896,1.0000001192092896],"translation":[-0.2593720853328705,0.7245326638221741,0.9631467461585999]},{"children":[0,18,19,20,21],"name":"Bone","rotation":[-2.9802322387695312e-08,2.3841855067985307e-07,8.470329472543003e-22,1],"scale":[1,0.9999998807907104,0.9999998807907104],"translation":[-0.0013114692410454154,-0.0024153697304427624,-0.00011468418961158022]},{"mesh":0,"name":"Body","skin":0},{"children":[23,22],"name":"CharacterArmature"}],"materials":[{"doubleSided":true,"name":"Skin","pbrMetallicRoughness":{"baseColorFactor":[0.013410447165369987,0.013410447165369987,0.013410447165369987,1],"metallicFactor":0,"roughnessFactor":0.5}},{"doubleSided":true,"name":"Black","pbrMetallicRoughness":{"baseColorFactor":[0.005604147911071777,0.005604147911071777,0.005604147911071777,1],"metallicFactor":0,"roughnessFactor":0.5}},{"doubleSided":true,"name":"Belt","pbrMetallicRoughness":{"baseColorFactor":[0.0061513208784163,0.007497135084122419,0.018847709521651268,1],"metallicFactor":0,"roughnessFactor":0.5}},{"doubleSided":true,"name":"Shirt","pbrMetallicRoughness":{"baseColorFactor":[0.6151719689369202,0.6151719689369202,0.6151719689369202,1],"metallicFactor":0,"roughnessFactor":0.5}},{"doubleSided":true,"name":"Details","pbrMetallicRoughness":{"baseColorFactor":[0.06371886283159256,0.06371886283159256,0.06371886283159256,1],"metallicFactor":0,"roughnessFactor":0.5}},{"doubleSided":true,"name":"Face","pbrMetallicRoughness":{"baseColorFactor":[0.013409564271569252,0.013409564271569252,0.012828422710299492,1],"metallicFactor":0,"roughnessFactor":0.5}},{"doubleSided":true,"name":"White","pbrMetallicRoughness":{"baseColorFactor":[0.800000011920929,0.800000011920929,0.800000011920929,1],"metallicFactor":0,"roughnessFactor":0.5}},{"doubleSided":true,"name":"Black_Head","pbrMetallicRoughness":{"baseColorFactor":[0.029097795486450195,0.029097795486450195,0.029097795486450195,1],"metallicFactor":0,"roughnessFactor":0.5}},{"doubleSided":true,"name":"Pink","pbrMetallicRoughness":{"baseColorFactor":[0.8000000715255737,0.17604881525039673,0.21668972074985504,1],"metallicFactor":0,"roughnessFactor":0.5}}],"meshes":[{"name":"Cube.004","primitives":[{"attributes":{"POSITION":0,"NORMAL":1,"COLOR_0":2,"JOINTS_0":3,"WEIGHTS_0":4},"indices":5,"material":0},{"attributes":{"POSITION":6,"NORMAL":7,"COLOR_0":8,"JOINTS_0":9,"WEIGHTS_0":10},"indices":11,"material":1},{"attributes":{"POSITION":12,"NORMAL":13,"COLOR_0":14,"JOINTS_0":15,"WEIGHTS_0":16},"indices":17,"material":2},{"attributes":{"POSITION":18,"NORMAL":19,"COLOR_0":20,"JOINTS_0":21,"WEIGHTS_0":22},"indices":23,"material":3},{"attributes":{"POSITION":24,"NORMAL":25,"COLOR_0":26,"JOINTS_0":27,"WEIGHTS_0":28},"indices":29,"material":4},{"attributes":{"POSITION":30,"NORMAL":31,"COLOR_0":32,"JOINTS_0":33,"WEIGHTS_0":34},"indices":35,"material":5},{"attributes":{"POSITION":36,"NORMAL":37,"COLOR_0":38,"JOINTS_0":39,"WEIGHTS_0":40},"indices":41,"material":6},{"attributes":{"POSITION":42,"NORMAL":43,"COLOR_0":44,"JOINTS_0":45,"WEIGHTS_0":46},"indices":47,"material":7},{"attributes":{"POSITION":48,"NORMAL":49,"COLOR_0":50,"JOINTS_0":51,"WEIGHTS_0":52},"indices":53,"material":8}]}],"skins":[{"inverseBindMatrices":54,"joints":[22,0,18,13,12,11,2,1,6,5,4,3,10,9,8,7,15,14,17,16,19,20,21],"name":"CharacterArmature"}],"accessors":[{"bufferView":0,"componentType":5126,"count":1392,"max":[1.619834065437317,2.1831400394439697,0.14981546998023987],"min":[-1.619834065437317,-0.018590589985251427,-0.12491019070148468],"type":"VEC3"},{"bufferView":1,"componentType":5126,"count":1392,"type":"VEC3"},{"bufferView":2,"componentType":5123,"count":1392,"normalized":true,"type":"VEC4"},{"bufferView":3,"componentType":5121,"count":1392,"type":"VEC4"},{"bufferView":4,"componentType":5126,"count":1392,"type":"VEC4"},{"bufferView":5,"componentType":5123,"count":2088,"type":"SCALAR"},{"bufferView":6,"componentType":5126,"count":1816,"max":[1.1096864938735962,2.058835983276367,0.20821082592010498],"min":[-1.1096864938735962,0.17141012847423553,-0.34778228402137756],"type":"VEC3"},{"bufferView":7,"componentType":5126,"count":1816,"type":"VEC3"},{"bufferView":8,"componentType":5123,"count":1816,"normalized":true,"type":"VEC4"},{"bufferView":9,"componentType":5121,"count":1816,"type":"VEC4"},{"bufferView":10,"componentType":5126,"count":1816,"type":"VEC4"},{"bufferView":11,"componentType":5123,"count":2688,"type":"SCALAR"},{"bufferView":12,"componentType":5126,"count":64,"max":[0.3856948912143707,1.155319333076477,0.2015051692724228],"min":[-0.3856948912143707,1.0789183378219604,-0.34482795000076294],"type":"VEC3"},{"bufferView":13,"componentType":5126,"count":64,"type":"VEC3"},{"bufferView":14,"componentType":5123,"count":64,"normalized":true,"type":"VEC4"},{"bufferView":15,"componentType":5121,"count":64,"type":"VEC4"},{"bufferView":16,"componentType":5126,"count":64,"type":"VEC4"},{"bufferView":17,"componentType":5123,"count":96,"type":"SCALAR"},{"bufferView":18,"componentType":5126,"count":196,"max":[1.2352021932601929,2.0867984294891357,0.2158389687538147],"min":[-1.2352021932601929,1.1545438766479492,-0.11861226707696915],"type":"VEC3"},{"bufferView":19,"componentType":5126,"count":196,"type":"VEC3"},{"bufferView":20,"componentType":5123,"count":196,"normalized":true,"type":"VEC4"},{"bufferView":21,"componentType":5121,"count":196,"type":"VEC4"},{"bufferView":22,"componentType":5126,"count":196,"type":"VEC4"},{"bufferView":23,"componentType":5123,"count":300,"type":"SCALAR"},{"bufferView":24,"componentType":5126,"count":78,"max":[0.07432509958744049,2.011439323425293,0.21893908083438873],"min":[-0.07432509958744049,1.0769060850143433,0.11778616160154343],"type":"VEC3"},{"bufferView":25,"componentType":5126,"count":78,"type":"VEC3"},{"bufferView":26,"componentType":5123,"count":78,"normalized":true,"type":"VEC4"},{"bufferView":27,"componentType":5121,"count":78,"type":"VEC4"},{"bufferView":28,"componentType":5126,"count":78,"type":"VEC4"},{"bufferView":29,"componentType":5123,"count":114,"type":"SCALAR"},{"bufferView":30,"componentType":5126,"count":454,"max":[0.4216066002845764,2.7062885761260986,0.3786737620830536],"min":[-0.4216066002845764,2.392045736312866,0.17275530099868774],"type":"VEC3"},{"bufferView":31,"componentType":5126,"count":454,"type":"VEC3"},{"bufferView":32,"componentType":5123,"count":454,"normalized":true,"type":"VEC4"},{"bufferView":33,"componentType":5121,"count":454,"type":"VEC4"},{"bufferView":34,"componentType":5126,"count":454,"type":"VEC4"},{"bufferView":35,"componentType":5123,"count":960,"type":"SCALAR"},{"bufferView":36,"componentType":5126,"count":56,"max":[0.3184109330177307,2.8907880783081055,0.7195013761520386],"min":[-0.3184109330177307,2.0059995651245117,-0.33122774958610535],"type":"VEC3"},{"bufferView":37,"componentType":5126,"count":56,"type":"VEC3"},{"bufferView":38,"componentType":5123,"count":56,"normalized":true,"type":"VEC4"},{"bufferView":39,"componentType":5121,"count":56,"type":"VEC4"},{"bufferView":40,"componentType":5126,"count":56,"type":"VEC4"},{"bufferView":41,"componentType":5123,"count":84,"type":"SCALAR"},{"bufferView":42,"componentType":5126,"count":428,"max":[0.706695020198822,2.8476521968841553,0.7137093544006348],"min":[-0.706695020198822,2.0610578060150146,-0.3615913689136505],"type":"VEC3"},{"bufferView":43,"componentType":5126,"count":428,"type":"VEC3"},{"bufferView":44,"componentType":5123,"count":428,"normalized":true,"type":"VEC4"},{"bufferView":45,"componentType":5121,"count":428,"type":"VEC4"},{"bufferView":46,"componentType":5126,"count":428,"type":"VEC4"},{"bufferView":47,"componentType":5123,"count":612,"type":"SCALAR"},{"bufferView":48,"componentType":5126,"count":46,"max":[0.19727785885334015,2.261399984359741,0.7575926780700684],"min":[-0.19727785885334015,1.9734687805175781,0.4879158139228821],"type":"VEC3"},{"bufferView":49,"componentType":5126,"count":46,"type":"VEC3"},{"bufferView":50,"componentType":5123,"count":46,"normalized":true,"type":"VEC4"},{"bufferView":51,"componentType":5121,"count":46,"type":"VEC4"},{"bufferView":52,"componentType":5126,"count":46,"type":"VEC4"},{"bufferView":53,"componentType":5123,"count":54,"type":"SCALAR"},{"bufferView":54,"componentType":5126,"count":23,"type":"MAT4"}],"bufferViews":[{"buffer":0,"byteLength":16704,"byteOffset":0},{"buffer":0,"byteLength":16704,"byteOffset":16704},{"buffer":0,"byteLength":11136,"byteOffset":33408},{"buffer":0,"byteLength":5568,"byteOffset":44544},{"buffer":0,"byteLength":22272,"byteOffset":50112},{"buffer":0,"byteLength":4176,"byteOffset":72384},{"buffer":0,"byteLength":21792,"byteOffset":76560},{"buffer":0,"byteLength":21792,"byteOffset":98352},{"buffer":0,"byteLength":14528,"byteOffset":120144},{"buffer":0,"byteLength":7264,"byteOffset":134672},{"buffer":0,"byteLength":29056,"byteOffset":141936},{"buffer":0,"byteLength":5376,"byteOffset":170992},{"buffer":0,"byteLength":768,"byteOffset":176368},{"buffer":0,"byteLength":768,"byteOffset":177136},{"buffer":0,"byteLength":512,"byteOffset":177904},{"buffer":0,"byteLength":256,"byteOffset":178416},{"buffer":0,"byteLength":1024,"byteOffset":178672},{"buffer":0,"byteLength":192,"byteOffset":179696},{"buffer":0,"byteLength":2352,"byteOffset":179888},{"buffer":0,"byteLength":2352,"byteOffset":182240},{"buffer":0,"byteLength":1568,"byteOffset":184592},{"buffer":0,"byteLength":784,"byteOffset":186160},{"buffer":0,"byteLength":3136,"byteOffset":186944},{"buffer":0,"byteLength":600,"byteOffset":190080},{"buffer":0,"byteLength":936,"byteOffset":190680},{"buffer":0,"byteLength":936,"byteOffset":191616},{"buffer":0,"byteLength":624,"byteOffset":192552},{"buffer":0,"byteLength":312,"byteOffset":193176},{"buffer":0,"byteLength":1248,"byteOffset":193488},{"buffer":0,"byteLength":228,"byteOffset":194736},{"buffer":0,"byteLength":5448,"byteOffset":194964},{"buffer":0,"byteLength":5448,"byteOffset":200412},{"buffer":0,"byteLength":3632,"byteOffset":205860},{"buffer":0,"byteLength":1816,"byteOffset":209492},{"buffer":0,"byteLength":7264,"byteOffset":211308},{"buffer":0,"byteLength":1920,"byteOffset":218572},{"buffer":0,"byteLength":672,"byteOffset":220492},{"buffer":0,"byteLength":672,"byteOffset":221164},{"buffer":0,"byteLength":448,"byteOffset":221836},{"buffer":0,"byteLength":224,"byteOffset":222284},{"buffer":0,"byteLength":896,"byteOffset":222508},{"buffer":0,"byteLength":168,"byteOffset":223404},{"buffer":0,"byteLength":5136,"byteOffset":223572},{"buffer":0,"byteLength":5136,"byteOffset":228708},{"buffer":0,"byteLength":3424,"byteOffset":233844},{"buffer":0,"byteLength":1712,"byteOffset":237268},{"buffer":0,"byteLength":6848,"byteOffset":238980},{"buffer":0,"byteLength":1224,"byteOffset":245828},{"buffer":0,"byteLength":552,"byteOffset":247052},{"buffer":0,"byteLength":552,"byteOffset":247604},{"buffer":0,"byteLength":368,"byteOffset":248156},{"buffer":0,"byteLength":184,"byteOffset":248524},{"buffer":0,"byteLength":736,"byteOffset":248708},{"buffer":0,"byteLength":108,"byteOffset":249444},{"buffer":0,"byteLength":1472,"byteOffset":249552}],"buffers":[{"byteLength":251024,"uri":"data:application/octet-stream;base64,"}]}