{"asset":{"generator":"Khronos glTF Blender I/O v1.6.16","version":"2.0"},"scene":0,"scenes":[{"name":"Scene","nodes":[24]}],"nodes":[{"name":"Foot.L","rotation":[6.612836386921117e-06,0.41113513708114624,0.9115745425224304,3.069460035476368e-06],"scale":[1,1.0000001192092896,1.0000001192092896],"translation":[0.265424907207489,0.057185567915439606,-0.457008957862854]},{"name":"Head","rotation":[-2.3288806438870324e-09,-0.00027546961791813374,4.820089327672861e-10,1],"scale":[1.0000001192092896,1.0000001192092896,0.9999999403953552],"translation":[-3.024987194066853e-08,0.13349753618240356,-1.2735001941877044e-09]},{"children":[1],"name":"Neck","rotation":[-0.03198620676994324,2.420335113129113e-05,0.00013981798838358372,0.9994884133338928],"scale":[0.9999997615814209,0.9999996423721313,0.9999999403953552],"translation":[1.348109801568853e-08,0.47689083218574524,-1.4369846645934103e-08]},{"name":"Fist.L","rotation":[0.00936204008758068,0.17389044165611267,-0.013174613937735558,0.9846324920654297],"scale":[1.000000238418579,0.9999998807907104,0.9999998807907104],"translation":[-1.2967918294748415e-08,0.4253474175930023,-3.038805473920547e-08]},{"children":[3],"name":"LowerArm.L","rotation":[0.10180187225341797,0.18688377737998962,-0.2694894075393677,0.9391945004463196],"scale":[1.0000001192092896,1.0000001192092896,1.0000001192092896],"translation":[-3.5639642348428424e-09,0.5282713174819946,7.942502122659789e-08]},{"children":[4],"name":"UpperArm.L","rotation":[-0.13879749178886414,-0.4089895784854889,-0.7925387024879456,0.4305173456668854],"scale":[0.9999998211860657,0.9999998807907104,0.9999998211860657],"translation":[3.5882624871419466e-08,0.2595314383506775,-1.2155756401455164e-09]},{"children":[5],"name":"Shoulder.L","rotation":[-0.03044784627854824,-0.013681882992386818,-0.4096797704696655,0.9116184711456299],"scale":[0.9999999403953552,0.9999998807907104,1],"translation":[0.13320158421993256,0.14084099233150482,0.013521402142941952]},{"name":"Fist.R","rotation":[0.00936208851635456,-0.17389041185379028,0.013174604624509811,0.9846323728561401],"scale":[0.9999998211860657,1.0000001192092896,1],"translation":[-1.3697746048535464e-08,0.42534711956977844,1.7877138702715456e-07]},{"children":[7],"name":"LowerArm.R","rotation":[0.10180199891328812,-0.1868838220834732,0.2694894075393677,0.9391945004463196],"scale":[0.9999999403953552,1,0.9999999403953552],"translation":[-4.42418155444102e-08,0.5282710194587708,-3.6813712966932144e-08]},{"children":[8],"name":"UpperArm.R","rotation":[-0.13096469640731812,0.3962755501270294,0.8162320256233215,0.39947378635406494],"scale":[1.000000238418579,1.0000001192092896,1.000000238418579],"translation":[-2.1520395421248395e-07,0.25953155755996704,-1.9224906111503515e-09]},{"children":[9],"name":"Shoulder.R","rotation":[-0.03044760972261429,0.013682462275028229,0.4096798002719879,0.9116184711456299],"scale":[0.9999999403953552,0.9999997019767761,1],"translation":[-0.13313028216362,0.14075471460819244,0.01346120797097683]},{"children":[2,6,10],"name":"Torso","rotation":[-0.004197639413177967,-0.07656959444284439,0.05084248632192612,0.9957582950592041],"scale":[1.0000001192092896,1.0000001192092896,1.0000001192092896],"translation":[-5.984134628794768e-12,0.2985785901546478,-8.06527467034357e-09]},{"children":[11],"name":"Abdomen","rotation":[0.07463377714157104,4.3666662463692774e-07,4.610865644849582e-08,0.9972110390663147],"scale":[0.9999998211860657,1,1],"translation":[5.574373254657594e-11,0.31433814764022827,-1.3374190643844486e-09]},{"children":[12],"name":"Hips","rotation":[-0.05076882243156433,-2.674304369065794e-07,-2.27531469221276e-08,0.9987104535102844],"scale":[1.0000001192092896,1,1],"translation":[-0.0014799339696764946,-0.06677481532096863,-0.04624226689338684]},{"name":"LowerLeg.L","rotation":[0.28979647159576416,0.0031437790021300316,0.009313690476119518,0.9570378661155701],"scale":[1.0000007152557373,1.000010371208191,1.0000100135803223],"translation":[-5.0058549305731503e-08,0.45380502939224243,1.1918637632390983e-08]},{"children":[14],"name":"UpperLeg.L","rotation":[-0.992782473564148,-0.011386942118406296,-0.0012119284365326166,0.11938098818063736],"scale":[0.9999979138374329,0.9999985098838806,0.9999494552612305],"translation":[0.2530290186405182,-0.016702136024832726,-0.05592375993728638]},{"name":"LowerLeg.R","rotation":[0.20645903050899506,-0.0023315397556871176,-0.00954949390143156,0.9784058928489685],"scale":[1.0000007152557373,1.0000039339065552,1.0000133514404297],"translation":[-6.449705214350843e-09,0.4538048207759857,4.616378035393609e-08]},{"children":[16],"name":"UpperLeg.R","rotation":[0.904273271560669,-0.011531736701726913,0.00524733355268836,0.42676618695259094],"scale":[0.9999979138374329,0.9999969005584717,0.9999499917030334],"translation":[-0.25471219420433044,-0.016702227294445038,-0.05592411011457443]},{"children":[13,15,17],"name":"Body","rotation":[-0.0005134228267706931,0.002699689706787467,2.4635846784804016e-05,0.9999963045120239],"scale":[0.9999999403953552,1.0000001192092896,1.0000001192092896],"translation":[0.0034564111847430468,0.8677315711975098,0.09881487488746643]},{"name":"PoleTarget.L","rotation":[-3.552693350009767e-15,1.1920937481590954e-07,-8.47033149202692e-22,1],"scale":[1,1.0000001192092896,1.0000001192092896],"translation":[0.2619941830635071,0.7245326638221741,0.963146984577179]},{"name":"Foot.R","rotation":[3.880512394971447e-06,-0.8775460124015808,-0.4794924259185791,6.311237484624144e-06],"scale":[1,1.0000001192092896,1],"translation":[-0.26280197501182556,0.08970806747674942,0.6268080472946167]},{"name":"PoleTarget.R","rotation":[-3.552734007591235e-15,-5.960464477539062e-07,3.388132596810768e-21,1],"scale":[1,1.0000001192092896,1.0000001192092896],"translation":[-0.2593720853328705,0.7245326638221741,0.9631467461585999]},{"children":[0,18,19,20,21],"name":"Bone","rotation":[-2.9802322387695312e-08,2.3841855067985307e-07,8.470329472543003e-22,1],"scale":[1,0.9999998807907104,0.9999998807907104],"translation":[-0.0013114692410454154,-0.0024153697304427624,-0.00011468418961158022]},{"mesh":0,"name":"Body","skin":0},{"children":[23,22],"name":"CharacterArmature"}],"materials":[{"doubleSided":true,"name":"Hair","pbrMetallicRoughness":{"baseColorFactor":[0.3324514627456665,0.1962498128414154,0.056082118302583694,1],"metallicFactor":0,"roughnessFactor":0.5}},{"doubleSided":true,"name":"Face","pbrMetallicRoughness":{"baseColorFactor":[1,1,0.9403874278068542,1],"metallicFactor":0,"roughnessFactor":0.5}},{"doubleSided":true,"name":"Skin","pbrMetallicRoughness":{"baseColorFactor":[0.013410447165369987,0.013410447165369987,0.013410447165369987,1],"metallicFactor":0,"roughnessFactor":0.5}},{"doubleSided":true,"name":"Main","pbrMetallicRoughness":{"baseColorFactor":[0.4292197823524475,0.4292197823524475,0.4292197823524475,1],"metallicFactor":0,"roughnessFactor":0.5}},{"doubleSided":true,"name":"Black","pbrMetallicRoughness":{"baseColorFactor":[0.05997152999043465,0.22025348246097565,0.15831056237220764,1],"metallicFactor":0,"roughnessFactor":0.5}},{"doubleSided":true,"name":"Brown","pbrMetallicRoughness":{"baseColorFactor":[0.009767326526343822,0.030765976756811142,0.033098362386226654,1],"metallicFactor":0,"roughnessFactor":0.5}}],"meshes":[{"name":"CUNurbsPath.010","primitives":[{"attributes":{"POSITION":0,"NORMAL":1,"JOINTS_0":2,"WEIGHTS_0":3},"indices":4,"material":0},{"attributes":{"POSITION":5,"NORMAL":6,"JOINTS_0":7,"WEIGHTS_0":8},"indices":9,"material":1},{"attributes":{"POSITION":10,"NORMAL":11,"JOINTS_0":12,"WEIGHTS_0":13},"indices":14,"material":2},{"attributes":{"POSITION":15,"NORMAL":16,"JOINTS_0":17,"WEIGHTS_0":18},"indices":19,"material":3},{"attributes":{"POSITION":20,"NORMAL":21,"JOINTS_0":22,"WEIGHTS_0":23},"indices":24,"material":4},{"attributes":{"POSITION":25,"NORMAL":26,"JOINTS_0":27,"WEIGHTS_0":28},"indices":29,"material":5}]}],"skins":[{"inverseBindMatrices":30,"joints":[22,0,18,13,12,11,2,1,6,5,4,3,10,9,8,7,15,14,17,16,19,20,21],"name":"CharacterArmature"}],"accessors":[{"bufferView":0,"componentType":5126,"count":6452,"max":[0.596453845500946,3.1857497692108154,0.7673794031143188],"min":[-0.5906786322593689,2.001964807510376,-0.6547115445137024],"type":"VEC3"},{"bufferView":1,"componentType":5126,"count":6452,"type":"VEC3"},{"bufferView":2,"componentType":5121,"count":6452,"type":"VEC4"},{"bufferView":3,"componentType":5126,"count":6452,"type":"VEC4"},{"bufferView":4,"componentType":5123,"count":18636,"type":"SCALAR"},{"bufferView":5,"componentType":5126,"count":454,"max":[0.3687567114830017,2.758138418197632,0.5015115141868591],"min":[-0.3687567114830017,2.4704511165618896,0.385300874710083],"type":"VEC3"},{"bufferView":6,"componentType":5126,"count":454,"type":"VEC3"},{"bufferView":7,"componentType":5121,"count":454,"type":"VEC4"},{"bufferView":8,"componentType":5126,"count":454,"type":"VEC4"},{"bufferView":9,"componentType":5123,"count":960,"type":"SCALAR"},{"bufferView":10,"componentType":5126,"count":2048,"max":[1.6198339462280273,3.1280739307403564,0.4916224479675293],"min":[-1.6198339462280273,-0.018590591847896576,-0.4916223883628845],"type":"VEC3"},{"bufferView":11,"componentType":5126,"count":2048,"type":"VEC3"},{"bufferView":12,"componentType":5121,"count":2048,"type":"VEC4"},{"bufferView":13,"componentType":5126,"count":2048,"type":"VEC4"},{"bufferView":14,"componentType":5123,"count":3072,"type":"SCALAR"},{"bufferView":15,"componentType":5126,"count":1224,"max":[1.1995409727096558,2.058835983276367,0.26688867807388306],"min":[-1.1995408535003662,0.7285517454147339,-0.4675079584121704],"type":"VEC3"},{"bufferView":16,"componentType":5126,"count":1224,"type":"VEC3"},{"bufferView":17,"componentType":5121,"count":1224,"type":"VEC4"},{"bufferView":18,"componentType":5126,"count":1224,"type":"VEC4"},{"bufferView":19,"componentType":5123,"count":1824,"type":"SCALAR"},{"bufferView":20,"componentType":5126,"count":48,"max":[0.16419504582881927,1.9403722286224365,0.2158389538526535],"min":[-0.1641950160264969,1.0916417837142944,0.16198626160621643],"type":"VEC3"},{"bufferView":21,"componentType":5126,"count":48,"type":"VEC3"},{"bufferView":22,"componentType":5121,"count":48,"type":"VEC4"},{"bufferView":23,"componentType":5126,"count":48,"type":"VEC4"},{"bufferView":24,"componentType":5123,"count":72,"type":"SCALAR"},{"bufferView":25,"componentType":5126,"count":698,"max":[0.39030101895332336,1.124103307723999,0.20595356822013855],"min":[-0.39030104875564575,0.1592964082956314,-0.3195708394050598],"type":"VEC3"},{"bufferView":26,"componentType":5126,"count":698,"type":"VEC3"},{"bufferView":27,"componentType":5121,"count":698,"type":"VEC4"},{"bufferView":28,"componentType":5126,"count":698,"type":"VEC4"},{"bufferView":29,"componentType":5123,"count":1026,"type":"SCALAR"},{"bufferView":30,"componentType":5126,"count":23,"type":"MAT4"}],"bufferViews":[{"buffer":0,"byteLength":77424,"byteOffset":0},{"buffer":0,"byteLength":77424,"byteOffset":77424},{"buffer":0,"byteLength":25808,"byteOffset":154848},{"buffer":0,"byteLength":103232,"byteOffset":180656},{"buffer":0,"byteLength":37272,"byteOffset":283888},{"buffer":0,"byteLength":5448,"byteOffset":321160},{"buffer":0,"byteLength":5448,"byteOffset":326608},{"buffer":0,"byteLength":1816,"byteOffset":332056},{"buffer":0,"byteLength":7264,"byteOffset":333872},{"buffer":0,"byteLength":1920,"byteOffset":341136},{"buffer":0,"byteLength":24576,"byteOffset":343056},{"buffer":0,"byteLength":24576,"byteOffset":367632},{"buffer":0,"byteLength":8192,"byteOffset":392208},{"buffer":0,"byteLength":32768,"byteOffset":400400},{"buffer":0,"byteLength":6144,"byteOffset":433168},{"buffer":0,"byteLength":14688,"byteOffset":439312},{"buffer":0,"byteLength":14688,"byteOffset":454000},{"buffer":0,"byteLength":4896,"byteOffset":468688},{"buffer":0,"byteLength":19584,"byteOffset":473584},{"buffer":0,"byteLength":3648,"byteOffset":493168},{"buffer":0,"byteLength":576,"byteOffset":496816},{"buffer":0,"byteLength":576,"byteOffset":497392},{"buffer":0,"byteLength":192,"byteOffset":497968},{"buffer":0,"byteLength":768,"byteOffset":498160},{"buffer":0,"byteLength":144,"byteOffset":498928},{"buffer":0,"byteLength":8376,"byteOffset":499072},{"buffer":0,"byteLength":8376,"byteOffset":507448},{"buffer":0,"byteLength":2792,"byteOffset":515824},{"buffer":0,"byteLength":11168,"byteOffset":518616},{"buffer":0,"byteLength":2052,"byteOffset":529784},{"buffer":0,"byteLength":1472,"byteOffset":531836}],"buffers":[{"byteLength":533308,"uri":"data:application/octet-stream;base64,"}]}