{"asset":{"generator":"Khronos glTF Blender I/O v1.6.16","version":"2.0"},"scene":0,"scenes":[{"name":"Scene","nodes":[24]}],"nodes":[{"name":"Foot.L","rotation":[6.612836386921117e-06,0.41113513708114624,0.9115745425224304,3.069460035476368e-06],"scale":[1,1.0000001192092896,1.0000001192092896],"translation":[0.265424907207489,0.057185567915439606,-0.457008957862854]},{"name":"Head","rotation":[-1.3983275648499216e-09,-0.0002754767774604261,3.3921356834554217e-09,1],"scale":[1.0000001192092896,1.0000001192092896,0.9999999403953552],"translation":[-3.026013573048658e-08,0.13349777460098267,1.7352945747006743e-08]},{"children":[1],"name":"Neck","rotation":[-0.03198620676994324,2.419974043732509e-05,0.00013981752272229642,0.9994884133338928],"scale":[0.9999998211860657,0.9999996423721313,0.9999998807907104],"translation":[1.0221464563642257e-08,0.47689083218574524,-1.8110133837012654e-08]},{"name":"Fist.L","rotation":[0.00936204195022583,0.17389042675495148,-0.013174610212445259,0.9846324920654297],"scale":[1,0.9999997019767761,0.9999998211860657],"translation":[-3.282605964827212e-09,0.42534735798835754,-5.609725661770426e-08]},{"children":[3],"name":"LowerArm.L","rotation":[0.10180190205574036,0.18688379228115082,-0.2694893777370453,0.9391945004463196],"scale":[1.000000238418579,1.000000238418579,1.000000238418579],"translation":[1.8691459047204262e-08,0.5282713174819946,2.6299267208429455e-09]},{"children":[4],"name":"UpperArm.L","rotation":[-0.13879749178886414,-0.4089895784854889,-0.7925387024879456,0.4305173456668854],"scale":[0.9999999403953552,1,1],"translation":[-1.4978343187976861e-07,0.2595316171646118,1.935805515884681e-09]},{"children":[5],"name":"Shoulder.L","rotation":[-0.030447842553257942,-0.013681876473128796,-0.4096797704696655,0.9116184711456299],"scale":[1,1,0.9999999403953552],"translation":[0.13320167362689972,0.14084090292453766,0.013521411456167698]},{"name":"Fist.R","rotation":[0.00936208851635456,-0.17389041185379028,0.013174604624509811,0.9846323728561401],"scale":[0.9999998211860657,1.0000001192092896,1],"translation":[-1.3697746048535464e-08,0.42534711956977844,1.7877138702715456e-07]},{"children":[7],"name":"LowerArm.R","rotation":[0.10180199891328812,-0.1868838220834732,0.2694894075393677,0.9391945004463196],"scale":[0.9999999403953552,1,0.9999999403953552],"translation":[-4.42418155444102e-08,0.5282710194587708,-3.6813712966932144e-08]},{"children":[8],"name":"UpperArm.R","rotation":[-0.1309647262096405,0.3962755501270294,0.8162320256233215,0.3994738459587097],"scale":[1.000000238418579,1.000000238418579,1.000000238418579],"translation":[-5.774271372160911e-08,0.25953158736228943,8.63572324760753e-10]},{"children":[9],"name":"Shoulder.R","rotation":[-0.03044760972261429,0.013682456687092781,0.4096798300743103,0.9116184711456299],"scale":[0.9999999403953552,0.9999997615814209,0.9999999403953552],"translation":[-0.13313040137290955,0.14075466990470886,0.013461222872138023]},{"children":[2,6,10],"name":"Torso","rotation":[-0.004197639878839254,-0.07656959444284439,0.05084248259663582,0.9957582950592041],"scale":[1.0000001192092896,1.0000001192092896,1.0000001192092896],"translation":[-7.873889040777016e-11,0.2985787093639374,-1.1558595858218723e-08]},{"children":[11],"name":"Abdomen","rotation":[0.07463377714157104,4.3666653937179944e-07,4.6113211027432044e-08,0.9972110390663147],"scale":[0.9999998807907104,1.0000001192092896,1],"translation":[1.9373756071638937e-11,0.3143381178379059,9.717021853816732e-09]},{"children":[12],"name":"Hips","rotation":[-0.05076882243156433,-2.6754545956464426e-07,-2.2754134576530305e-08,0.9987104535102844],"scale":[1.0000001192092896,1.0000001192092896,1],"translation":[-0.0014799342025071383,-0.06677481532096863,-0.04624227434396744]},{"name":"LowerLeg.L","rotation":[0.2897961437702179,0.0031437757425010204,0.009313692338764668,0.9570379257202148],"scale":[1.0000004768371582,1.0000101327896118,1.0000098943710327],"translation":[4.4728314385622525e-09,0.45380493998527527,2.9022937386713465e-09]},{"children":[14],"name":"UpperLeg.L","rotation":[-0.992782473564148,-0.011386936530470848,-0.0012119433376938105,0.11938118189573288],"scale":[0.9999978542327881,0.9999983310699463,0.9999493360519409],"translation":[0.2530290186405182,-0.016702136024832726,-0.05592375993728638]},{"name":"LowerLeg.R","rotation":[0.20645856857299805,-0.0023315364960581064,-0.009549498558044434,0.9784060716629028],"scale":[1.0000009536743164,1.0000039339065552,1.0000134706497192],"translation":[-2.6311440137760655e-08,0.4538048803806305,4.168439105001198e-08]},{"children":[16],"name":"UpperLeg.R","rotation":[0.9042733907699585,-0.01153174415230751,0.0052473172545433044,0.42676594853401184],"scale":[0.9999978542327881,0.9999969601631165,0.9999500513076782],"translation":[-0.25471219420433044,-0.016702227294445038,-0.05592412129044533]},{"children":[13,15,17],"name":"Body","rotation":[-0.0005134227685630322,0.0026996894739568233,2.463584314682521e-05,0.9999962449073792],"scale":[0.9999999403953552,1.0000001192092896,1],"translation":[0.0034564111847430468,0.8677315711975098,0.09881487488746643]},{"name":"PoleTarget.L","rotation":[-3.552693350009767e-15,1.1920937481590954e-07,-8.47033149202692e-22,1],"scale":[1,1.0000001192092896,1.0000001192092896],"translation":[0.2619941830635071,0.7245326638221741,0.963146984577179]},{"name":"Foot.R","rotation":[3.880512394971447e-06,-0.8775460124015808,-0.4794924259185791,6.311237484624144e-06],"scale":[1,1.0000001192092896,1],"translation":[-0.26280197501182556,0.08970806747674942,0.6268080472946167]},{"name":"PoleTarget.R","rotation":[-3.552734007591235e-15,-5.960464477539062e-07,3.388132596810768e-21,1],"scale":[1,1.0000001192092896,1.0000001192092896],"translation":[-0.2593720853328705,0.7245326638221741,0.9631467461585999]},{"children":[0,18,19,20,21],"name":"Bone","rotation":[-2.9802322387695312e-08,2.3841855067985307e-07,8.470329472543003e-22,1],"scale":[1,0.9999998807907104,0.9999998807907104],"translation":[-0.0013114692410454154,-0.0024153697304427624,-0.00011468418961158022]},{"mesh":0,"name":"Body","skin":0},{"children":[23,22],"name":"CharacterArmature"}],"materials":[{"doubleSided":true,"name":"Skin","pbrMetallicRoughness":{"baseColorFactor":[0.09988418966531754,0.11068648099899292,0.023889323696494102,1],"metallicFactor":0,"roughnessFactor":0.5}},{"doubleSided":true,"name":"Pants","pbrMetallicRoughness":{"baseColorFactor":[0.11068568378686905,0.07833225280046463,0.03103931061923504,1],"metallicFactor":0,"roughnessFactor":0.5}},{"doubleSided":true,"name":"Teeth","pbrMetallicRoughness":{"baseColorFactor":[0.2597939074039459,0.2560136318206787,0.12794612348079681,1],"metallicFactor":0,"roughnessFactor":0.5}},{"doubleSided":true,"name":"Face","pbrMetallicRoughness":{"baseColorFactor":[0.020377933979034424,0.020377933979034424,0.019429484382271767,1],"metallicFactor":0,"roughnessFactor":0.5}}],"meshes":[{"name":"Cube.004","primitives":[{"attributes":{"POSITION":0,"NORMAL":1,"JOINTS_0":2,"WEIGHTS_0":3},"indices":4,"material":0},{"attributes":{"POSITION":5,"NORMAL":6,"JOINTS_0":7,"WEIGHTS_0":8},"indices":9,"material":1},{"attributes":{"POSITION":10,"NORMAL":11,"JOINTS_0":12,"WEIGHTS_0":13},"indices":14,"material":2},{"attributes":{"POSITION":15,"NORMAL":16,"JOINTS_0":17,"WEIGHTS_0":18},"indices":19,"material":3}]}],"skins":[{"inverseBindMatrices":20,"joints":[22,0,18,13,12,11,2,1,6,5,4,3,10,9,8,7,15,14,17,16,19,20,21],"name":"CharacterArmature"}],"accessors":[{"bufferView":0,"componentType":5126,"count":3576,"max":[1.619834065437317,3.1280739307403564,0.4916224181652069],"min":[-1.619834065437317,-0.018590589985251427,-0.4916224181652069],"type":"VEC3"},{"bufferView":1,"componentType":5126,"count":3576,"type":"VEC3"},{"bufferView":2,"componentType":5121,"count":3576,"type":"VEC4"},{"bufferView":3,"componentType":5126,"count":3576,"type":"VEC4"},{"bufferView":4,"componentType":5123,"count":5328,"type":"SCALAR"},{"bufferView":5,"componentType":5126,"count":552,"max":[0.4328356981277466,1.3184089660644531,0.24309489130973816],"min":[-0.4328356981277466,0.6049026250839233,-0.3220467269420624],"type":"VEC3"},{"bufferView":6,"componentType":5126,"count":552,"type":"VEC3"},{"bufferView":7,"componentType":5121,"count":552,"type":"VEC4"},{"bufferView":8,"componentType":5126,"count":552,"type":"VEC4"},{"bufferView":9,"componentType":5123,"count":828,"type":"SCALAR"},{"bufferView":10,"componentType":5126,"count":88,"max":[0.18939684331417084,2.3730051517486572,0.5178410410881042],"min":[-0.18939684331417084,2.2564501762390137,0.4631054997444153],"type":"VEC3"},{"bufferView":11,"componentType":5126,"count":88,"type":"VEC3"},{"bufferView":12,"componentType":5121,"count":88,"type":"VEC4"},{"bufferView":13,"componentType":5126,"count":88,"type":"VEC4"},{"bufferView":14,"componentType":5123,"count":120,"type":"SCALAR"},{"bufferView":15,"componentType":5126,"count":195,"max":[0.3682709336280823,2.7766952514648438,0.5137984156608582],"min":[-0.36214280128479004,2.237661123275757,0.3853009343147278],"type":"VEC3"},{"bufferView":16,"componentType":5126,"count":195,"type":"VEC3"},{"bufferView":17,"componentType":5121,"count":195,"type":"VEC4"},{"bufferView":18,"componentType":5126,"count":195,"type":"VEC4"},{"bufferView":19,"componentType":5123,"count":1110,"type":"SCALAR"},{"bufferView":20,"componentType":5126,"count":23,"type":"MAT4"}],"bufferViews":[{"buffer":0,"byteLength":42912,"byteOffset":0},{"buffer":0,"byteLength":42912,"byteOffset":42912},{"buffer":0,"byteLength":14304,"byteOffset":85824},{"buffer":0,"byteLength":57216,"byteOffset":100128},{"buffer":0,"byteLength":10656,"byteOffset":157344},{"buffer":0,"byteLength":6624,"byteOffset":168000},{"buffer":0,"byteLength":6624,"byteOffset":174624},{"buffer":0,"byteLength":2208,"byteOffset":181248},{"buffer":0,"byteLength":8832,"byteOffset":183456},{"buffer":0,"byteLength":1656,"byteOffset":192288},{"buffer":0,"byteLength":1056,"byteOffset":193944},{"buffer":0,"byteLength":1056,"byteOffset":195000},{"buffer":0,"byteLength":352,"byteOffset":196056},{"buffer":0,"byteLength":1408,"byteOffset":196408},{"buffer":0,"byteLength":240,"byteOffset":197816},{"buffer":0,"byteLength":2340,"byteOffset":198056},{"buffer":0,"byteLength":2340,"byteOffset":200396},{"buffer":0,"byteLength":780,"byteOffset":202736},{"buffer":0,"byteLength":3120,"byteOffset":203516},{"buffer":0,"byteLength":2220,"byteOffset":206636},{"buffer":0,"byteLength":1472,"byteOffset":208856}],"buffers":[{"byteLength":210328,"uri":"data:application/octet-stream;base64,"}]}