{"asset":{"generator":"Khronos glTF Blender I/O v1.6.16","version":"2.0"},"scene":0,"scenes":[{"name":"Scene","nodes":[24]}],"nodes":[{"name":"Foot.L","rotation":[6.612836386921117e-06,0.41113513708114624,0.9115745425224304,3.069460035476368e-06],"scale":[1,1.0000001192092896,1.0000001192092896],"translation":[0.265424907207489,0.057185567915439606,-0.457008957862854]},{"name":"Head","rotation":[-2.5625450650323955e-09,-0.0002754767192527652,3.3923917008849003e-09,1],"scale":[1.0000001192092896,1.000000238418579,0.9999999403953552],"translation":[-1.4423036986954685e-08,0.13349777460098267,8.97976715208415e-09]},{"children":[1],"name":"Neck","rotation":[-0.03198620304465294,2.4196286176447757e-05,0.00013982056407257915,0.9994884133338928],"scale":[0.9999997615814209,0.9999995231628418,0.9999999403953552],"translation":[-4.887206195292038e-10,0.47689083218574524,1.267162902385266e-10]},{"name":"Fist.L","rotation":[0.009362060576677322,0.17389044165611267,-0.01317462045699358,0.9846324920654297],"scale":[1,0.9999997615814209,0.9999998211860657],"translation":[-3.416249683141359e-08,0.42534735798835754,-1.8037465565612365e-07]},{"children":[3],"name":"LowerArm.L","rotation":[0.10180186480283737,0.186883807182312,-0.2694894075393677,0.9391945004463196],"scale":[1.0000001192092896,1,1],"translation":[-3.70621648926317e-08,0.5282712578773499,-3.7296839394684866e-08]},{"children":[4],"name":"UpperArm.L","rotation":[-0.13879744708538055,-0.4089895784854889,-0.7925387024879456,0.43051737546920776],"scale":[1,1,0.9999998807907104],"translation":[-1.3749374083715793e-08,0.2595313787460327,3.3337297367097563e-09]},{"children":[5],"name":"Shoulder.L","rotation":[-0.03044784627854824,-0.013681884855031967,-0.4096797704696655,0.9116184711456299],"scale":[0.9999998211860657,0.9999998807907104,1],"translation":[0.13320158421993256,0.14084097743034363,0.0135214077308774]},{"name":"Fist.R","rotation":[0.009362081997096539,-0.17389042675495148,0.013174597173929214,0.9846324920654297],"scale":[0.9999997615814209,1,1],"translation":[-4.331293368409206e-08,0.42534714937210083,4.447462842449568e-08]},{"children":[7],"name":"LowerArm.R","rotation":[0.10180199891328812,-0.18688379228115082,0.2694893777370453,0.9391945004463196],"scale":[1,0.9999999403953552,0.9999998807907104],"translation":[5.189944829453452e-08,0.528270959854126,-7.397497370220663e-08]},{"children":[8],"name":"UpperArm.R","rotation":[-0.1309647113084793,0.39627549052238464,0.8162320256233215,0.39947378635406494],"scale":[1.0000001192092896,1.0000001192092896,1.000000238418579],"translation":[-4.9340183494450685e-08,0.25953158736228943,-1.0689666041230339e-08]},{"children":[9],"name":"Shoulder.R","rotation":[-0.03044760972261429,0.013682453893125057,0.4096798002719879,0.9116184711456299],"scale":[0.9999998211860657,0.9999997019767761,1],"translation":[-0.1331302672624588,0.14075471460819244,0.013461209833621979]},{"children":[2,6,10],"name":"Torso","rotation":[-0.004197639413177967,-0.07656959444284439,0.05084248632192612,0.9957582950592041],"scale":[1.0000001192092896,1.0000001192092896,1.0000001192092896],"translation":[-6.419180464956042e-11,0.2985785901546478,-8.057311262632538e-09]},{"children":[11],"name":"Abdomen","rotation":[0.07463377714157104,4.3666298665812064e-07,4.6133820319482766e-08,0.9972110390663147],"scale":[0.9999998807907104,1,1.0000001192092896],"translation":[4.8469409041906886e-11,0.3143381178379059,5.156443605436323e-10]},{"children":[12],"name":"Hips","rotation":[-0.05076882615685463,-2.674302379546134e-07,-2.275313981670024e-08,0.9987104535102844],"scale":[1.0000001192092896,1.000000238418579,1],"translation":[-0.0014799339696764946,-0.0667748749256134,-0.04624226689338684]},{"name":"LowerLeg.L","rotation":[0.28979572653770447,0.0031437724828720093,0.009313693270087242,0.9570380449295044],"scale":[1.0000004768371582,1.0000101327896118,1.0000100135803223],"translation":[7.6657515890588e-09,0.45380496978759766,1.0772186476160073e-09]},{"children":[14],"name":"UpperLeg.L","rotation":[-0.9927824139595032,-0.011386941187083721,-0.0012119401944801211,0.11938145756721497],"scale":[0.9999978542327881,0.9999982714653015,0.9999494552612305],"translation":[0.2530290484428406,-0.0167021956294775,-0.055923767387866974]},{"name":"LowerLeg.R","rotation":[0.20645838975906372,-0.002331534866243601,-0.009549494832754135,0.9784060120582581],"scale":[1.0000009536743164,1.0000039339065552,1.0000135898590088],"translation":[6.780955796870103e-09,0.4538049101829529,-4.5721474606352785e-08]},{"children":[16],"name":"UpperLeg.R","rotation":[0.904273509979248,-0.011531746946275234,0.005247318651527166,0.42676591873168945],"scale":[0.9999978542327881,0.9999968409538269,0.9999498724937439],"translation":[-0.25471219420433044,-0.016702227294445038,-0.05592413619160652]},{"children":[13,15,17],"name":"Body","rotation":[-0.0005134227685630322,0.0026996894739568233,2.4635844965814613e-05,0.9999962449073792],"scale":[0.9999999403953552,1,1.0000001192092896],"translation":[0.0034564111847430468,0.8677315711975098,0.09881487488746643]},{"name":"PoleTarget.L","rotation":[-3.552693350009767e-15,1.1920937481590954e-07,-8.47033149202692e-22,1],"scale":[1,1.0000001192092896,1.0000001192092896],"translation":[0.2619941830635071,0.7245326638221741,0.963146984577179]},{"name":"Foot.R","rotation":[3.880512394971447e-06,-0.8775460124015808,-0.4794924259185791,6.311237484624144e-06],"scale":[1,1.0000001192092896,1],"translation":[-0.26280197501182556,0.08970806747674942,0.6268080472946167]},{"name":"PoleTarget.R","rotation":[-3.552734007591235e-15,-5.960464477539062e-07,3.388132596810768e-21,1],"scale":[1,1.0000001192092896,1.0000001192092896],"translation":[-0.2593720853328705,0.7245326638221741,0.9631467461585999]},{"children":[0,18,19,20,21],"name":"Bone","rotation":[-2.9802322387695312e-08,2.3841855067985307e-07,8.470329472543003e-22,1],"scale":[1,0.9999998807907104,0.9999998807907104],"translation":[-0.0013114692410454154,-0.0024153697304427624,-0.00011468418961158022]},{"mesh":0,"name":"Body","skin":0},{"children":[23,22],"name":"CharacterArmature"}],"materials":[{"doubleSided":true,"name":"Skin","pbrMetallicRoughness":{"baseColorFactor":[0.09988418966531754,0.11068648099899292,0.023889323696494102,1],"metallicFactor":0,"roughnessFactor":0.5}},{"doubleSided":true,"name":"Pants","pbrMetallicRoughness":{"baseColorFactor":[0.11068568378686905,0.07833225280046463,0.03103931061923504,1],"metallicFactor":0,"roughnessFactor":0.5}},{"doubleSided":true,"name":"Face","pbrMetallicRoughness":{"baseColorFactor":[0.020377933979034424,0.020377933979034424,0.019429484382271767,1],"metallicFactor":0,"roughnessFactor":0.5}},{"doubleSided":true,"name":"Hair","pbrMetallicRoughness":{"baseColorFactor":[0.01850022003054619,0.014443841762840748,0.015208512544631958,1],"metallicFactor":0,"roughnessFactor":0.5}},{"doubleSided":true,"name":"Shirt","pbrMetallicRoughness":{"baseColorFactor":[0.2597939074039459,0.22916072607040405,0.18184179067611694,1],"metallicFactor":0,"roughnessFactor":0.5}}],"meshes":[{"name":"Cube.004","primitives":[{"attributes":{"POSITION":0,"NORMAL":1,"JOINTS_0":2,"WEIGHTS_0":3},"indices":4,"material":0},{"attributes":{"POSITION":5,"NORMAL":6,"JOINTS_0":7,"WEIGHTS_0":8},"indices":9,"material":1},{"attributes":{"POSITION":10,"NORMAL":11,"JOINTS_0":12,"WEIGHTS_0":13},"indices":14,"material":2},{"attributes":{"POSITION":15,"NORMAL":16,"JOINTS_0":17,"WEIGHTS_0":18},"indices":19,"material":3},{"attributes":{"POSITION":20,"NORMAL":21,"JOINTS_0":22,"WEIGHTS_0":23},"indices":24,"material":4}]}],"skins":[{"inverseBindMatrices":25,"joints":[22,0,18,13,12,11,2,1,6,5,4,3,10,9,8,7,15,14,17,16,19,20,21],"name":"CharacterArmature"}],"accessors":[{"bufferView":0,"componentType":5126,"count":3016,"max":[1.619834065437317,3.1280739307403564,0.4916224181652069],"min":[-1.619834065437317,-0.018590589985251427,-0.4916224181652069],"type":"VEC3"},{"bufferView":1,"componentType":5126,"count":3016,"type":"VEC3"},{"bufferView":2,"componentType":5121,"count":3016,"type":"VEC4"},{"bufferView":3,"componentType":5126,"count":3016,"type":"VEC4"},{"bufferView":4,"componentType":5123,"count":4488,"type":"SCALAR"},{"bufferView":5,"componentType":5126,"count":552,"max":[0.4328356981277466,1.3184089660644531,0.24309489130973816],"min":[-0.4328356981277466,0.6049026250839233,-0.3220467269420624],"type":"VEC3"},{"bufferView":6,"componentType":5126,"count":552,"type":"VEC3"},{"bufferView":7,"componentType":5121,"count":552,"type":"VEC4"},{"bufferView":8,"componentType":5126,"count":552,"type":"VEC4"},{"bufferView":9,"componentType":5123,"count":828,"type":"SCALAR"},{"bufferView":10,"componentType":5126,"count":454,"max":[0.3682709336280823,2.7766952514648438,0.5015114545822144],"min":[-0.36214280128479004,2.4704513549804688,0.3853009343147278],"type":"VEC3"},{"bufferView":11,"componentType":5126,"count":454,"type":"VEC3"},{"bufferView":12,"componentType":5121,"count":454,"type":"VEC4"},{"bufferView":13,"componentType":5126,"count":454,"type":"VEC4"},{"bufferView":14,"componentType":5123,"count":960,"type":"SCALAR"},{"bufferView":15,"componentType":5126,"count":4688,"max":[0.623634397983551,3.1857497692108154,0.6612669229507446],"min":[-0.6236343383789062,1.5845732688903809,-0.7616161108016968],"type":"VEC3"},{"bufferView":16,"componentType":5126,"count":4688,"type":"VEC3"},{"bufferView":17,"componentType":5121,"count":4688,"type":"VEC4"},{"bufferView":18,"componentType":5126,"count":4688,"type":"VEC4"},{"bufferView":19,"componentType":5123,"count":13416,"type":"SCALAR"},{"bufferView":20,"componentType":5126,"count":816,"max":[0.6065344214439392,2.058835983276367,0.23705455660820007],"min":[-0.6065344214439392,1.2165536880493164,-0.2989290654659271],"type":"VEC3"},{"bufferView":21,"componentType":5126,"count":816,"type":"VEC3"},{"bufferView":22,"componentType":5121,"count":816,"type":"VEC4"},{"bufferView":23,"componentType":5126,"count":816,"type":"VEC4"},{"bufferView":24,"componentType":5123,"count":1224,"type":"SCALAR"},{"bufferView":25,"componentType":5126,"count":23,"type":"MAT4"}],"bufferViews":[{"buffer":0,"byteLength":36192,"byteOffset":0},{"buffer":0,"byteLength":36192,"byteOffset":36192},{"buffer":0,"byteLength":12064,"byteOffset":72384},{"buffer":0,"byteLength":48256,"byteOffset":84448},{"buffer":0,"byteLength":8976,"byteOffset":132704},{"buffer":0,"byteLength":6624,"byteOffset":141680},{"buffer":0,"byteLength":6624,"byteOffset":148304},{"buffer":0,"byteLength":2208,"byteOffset":154928},{"buffer":0,"byteLength":8832,"byteOffset":157136},{"buffer":0,"byteLength":1656,"byteOffset":165968},{"buffer":0,"byteLength":5448,"byteOffset":167624},{"buffer":0,"byteLength":5448,"byteOffset":173072},{"buffer":0,"byteLength":1816,"byteOffset":178520},{"buffer":0,"byteLength":7264,"byteOffset":180336},{"buffer":0,"byteLength":1920,"byteOffset":187600},{"buffer":0,"byteLength":56256,"byteOffset":189520},{"buffer":0,"byteLength":56256,"byteOffset":245776},{"buffer":0,"byteLength":18752,"byteOffset":302032},{"buffer":0,"byteLength":75008,"byteOffset":320784},{"buffer":0,"byteLength":26832,"byteOffset":395792},{"buffer":0,"byteLength":9792,"byteOffset":422624},{"buffer":0,"byteLength":9792,"byteOffset":432416},{"buffer":0,"byteLength":3264,"byteOffset":442208},{"buffer":0,"byteLength":13056,"byteOffset":445472},{"buffer":0,"byteLength":2448,"byteOffset":458528},{"buffer":0,"byteLength":1472,"byteOffset":460976}],"buffers":[{"byteLength":462448,"uri":"data:application/octet-stream;base64,"}]}