{"asset":{"generator":"Khronos glTF Blender I/O v1.6.16","version":"2.0"},"scene":0,"scenes":[{"name":"Scene","nodes":[24]}],"nodes":[{"name":"Foot.L","rotation":[6.612836386921117e-06,0.41113513708114624,0.9115745425224304,3.069460035476368e-06],"scale":[1,1.0000001192092896,1.0000001192092896],"translation":[0.265424907207489,0.057185567915439606,-0.457008957862854]},{"name":"Head","rotation":[-2.3288806438870324e-09,-0.00027546961791813374,4.820089327672861e-10,1],"scale":[1.0000001192092896,1.0000001192092896,0.9999999403953552],"translation":[-3.024987194066853e-08,0.13349753618240356,-1.2735001941877044e-09]},{"children":[1],"name":"Neck","rotation":[-0.03198620676994324,2.420335113129113e-05,0.00013981798838358372,0.9994884133338928],"scale":[0.9999997615814209,0.9999996423721313,0.9999999403953552],"translation":[1.348109801568853e-08,0.47689083218574524,-1.4369846645934103e-08]},{"name":"Fist.L","rotation":[0.00936204008758068,0.17389044165611267,-0.013174613937735558,0.9846324920654297],"scale":[1.000000238418579,0.9999998807907104,0.9999998807907104],"translation":[-1.2967918294748415e-08,0.4253474175930023,-3.038805473920547e-08]},{"children":[3],"name":"LowerArm.L","rotation":[0.10180187225341797,0.18688377737998962,-0.2694894075393677,0.9391945004463196],"scale":[1.0000001192092896,1.0000001192092896,1.0000001192092896],"translation":[-3.5639642348428424e-09,0.5282713174819946,7.942502122659789e-08]},{"children":[4],"name":"UpperArm.L","rotation":[-0.13879749178886414,-0.4089895784854889,-0.7925387024879456,0.4305173456668854],"scale":[0.9999998211860657,0.9999998807907104,0.9999998211860657],"translation":[3.5882624871419466e-08,0.2595314383506775,-1.2155756401455164e-09]},{"children":[5],"name":"Shoulder.L","rotation":[-0.03044784627854824,-0.013681882992386818,-0.4096797704696655,0.9116184711456299],"scale":[0.9999999403953552,0.9999998807907104,1],"translation":[0.13320158421993256,0.14084099233150482,0.013521402142941952]},{"name":"Fist.R","rotation":[0.00936208851635456,-0.17389041185379028,0.013174604624509811,0.9846323728561401],"scale":[0.9999998211860657,1.0000001192092896,1],"translation":[-1.3697746048535464e-08,0.42534711956977844,1.7877138702715456e-07]},{"children":[7],"name":"LowerArm.R","rotation":[0.10180199891328812,-0.1868838220834732,0.2694894075393677,0.9391945004463196],"scale":[0.9999999403953552,1,0.9999999403953552],"translation":[-4.42418155444102e-08,0.5282710194587708,-3.6813712966932144e-08]},{"children":[8],"name":"UpperArm.R","rotation":[-0.13096469640731812,0.3962755501270294,0.8162320256233215,0.39947378635406494],"scale":[1.000000238418579,1.0000001192092896,1.000000238418579],"translation":[-2.1520395421248395e-07,0.25953155755996704,-1.9224906111503515e-09]},{"children":[9],"name":"Shoulder.R","rotation":[-0.03044760972261429,0.013682462275028229,0.4096798002719879,0.9116184711456299],"scale":[0.9999999403953552,0.9999997019767761,1],"translation":[-0.13313028216362,0.14075471460819244,0.01346120797097683]},{"children":[2,6,10],"name":"Torso","rotation":[-0.004197639413177967,-0.07656959444284439,0.05084248632192612,0.9957582950592041],"scale":[1.0000001192092896,1.0000001192092896,1.0000001192092896],"translation":[-5.984134628794768e-12,0.2985785901546478,-8.06527467034357e-09]},{"children":[11],"name":"Abdomen","rotation":[0.07463377714157104,4.3666662463692774e-07,4.610865644849582e-08,0.9972110390663147],"scale":[0.9999998211860657,1,1],"translation":[5.574373254657594e-11,0.31433814764022827,-1.3374190643844486e-09]},{"children":[12],"name":"Hips","rotation":[-0.05076882243156433,-2.674304369065794e-07,-2.27531469221276e-08,0.9987104535102844],"scale":[1.0000001192092896,1,1],"translation":[-0.0014799339696764946,-0.06677481532096863,-0.04624226689338684]},{"name":"LowerLeg.L","rotation":[0.28979647159576416,0.0031437790021300316,0.009313690476119518,0.9570378661155701],"scale":[1.0000007152557373,1.000010371208191,1.0000100135803223],"translation":[-5.0058549305731503e-08,0.45380502939224243,1.1918637632390983e-08]},{"children":[14],"name":"UpperLeg.L","rotation":[-0.992782473564148,-0.011386942118406296,-0.0012119284365326166,0.11938098818063736],"scale":[0.9999979138374329,0.9999985098838806,0.9999494552612305],"translation":[0.2530290186405182,-0.016702136024832726,-0.05592375993728638]},{"name":"LowerLeg.R","rotation":[0.20645903050899506,-0.0023315397556871176,-0.00954949390143156,0.9784058928489685],"scale":[1.0000007152557373,1.0000039339065552,1.0000133514404297],"translation":[-6.449705214350843e-09,0.4538048207759857,4.616378035393609e-08]},{"children":[16],"name":"UpperLeg.R","rotation":[0.904273271560669,-0.011531736701726913,0.00524733355268836,0.42676618695259094],"scale":[0.9999979138374329,0.9999969005584717,0.9999499917030334],"translation":[-0.25471219420433044,-0.016702227294445038,-0.05592411011457443]},{"children":[13,15,17],"name":"Body","rotation":[-0.0005134228267706931,0.002699689706787467,2.4635846784804016e-05,0.9999963045120239],"scale":[0.9999999403953552,1.0000001192092896,1.0000001192092896],"translation":[0.0034564111847430468,0.8677315711975098,0.09881487488746643]},{"name":"PoleTarget.L","rotation":[-3.552693350009767e-15,1.1920937481590954e-07,-8.47033149202692e-22,1],"scale":[1,1.0000001192092896,1.0000001192092896],"translation":[0.2619941830635071,0.7245326638221741,0.963146984577179]},{"name":"Foot.R","rotation":[3.880512394971447e-06,-0.8775460124015808,-0.4794924259185791,6.311237484624144e-06],"scale":[1,1.0000001192092896,1],"translation":[-0.26280197501182556,0.08970806747674942,0.6268080472946167]},{"name":"PoleTarget.R","rotation":[-3.552734007591235e-15,-5.960464477539062e-07,3.388132596810768e-21,1],"scale":[1,1.0000001192092896,1.0000001192092896],"translation":[-0.2593720853328705,0.7245326638221741,0.9631467461585999]},{"children":[0,18,19,20,21],"name":"Bone","rotation":[-2.9802322387695312e-08,2.3841855067985307e-07,8.470329472543003e-22,1],"scale":[1,0.9999998807907104,0.9999998807907104],"translation":[-0.0013114692410454154,-0.0024153697304427624,-0.00011468418961158022]},{"mesh":0,"name":"Body","skin":0},{"children":[23,22],"name":"CharacterArmature"}],"materials":[{"doubleSided":true,"name":"Skin","pbrMetallicRoughness":{"baseColorFactor":[0.013410447165369987,0.013410447165369987,0.013410447165369987,1],"metallicFactor":0,"roughnessFactor":0.5}},{"doubleSided":true,"name":"Light","pbrMetallicRoughness":{"baseColorFactor":[0.5382180213928223,0.4075022041797638,0.2833307981491089,1],"metallicFactor":0,"roughnessFactor":0.5}},{"doubleSided":true,"name":"Main","pbrMetallicRoughness":{"baseColorFactor":[0.05779604613780975,0.027734598144888878,0.02231578901410103,1],"metallicFactor":0,"roughnessFactor":0.5}},{"doubleSided":true,"name":"Pants","pbrMetallicRoughness":{"baseColorFactor":[0.02539258450269699,0.013489817269146442,0.009691511280834675,1],"metallicFactor":0,"roughnessFactor":0.5}},{"doubleSided":true,"name":"Hair","pbrMetallicRoughness":{"baseColorFactor":[0.14731115102767944,0.03598274663090706,0.014853149652481079,1],"metallicFactor":0,"roughnessFactor":0.5}},{"doubleSided":true,"name":"Helmet","pbrMetallicRoughness":{"baseColorFactor":[0.0607173852622509,0.0607173852622509,0.0607173852622509,1],"metallicFactor":0,"roughnessFactor":0.5}},{"doubleSided":true,"name":"Horns","pbrMetallicRoughness":{"baseColorFactor":[0.41093289852142334,0.35165640711784363,0.2277006059885025,1],"metallicFactor":0,"roughnessFactor":0.5}},{"doubleSided":true,"name":"Face","pbrMetallicRoughness":{"baseColorFactor":[1,1,0.9403874278068542,1],"metallicFactor":0,"roughnessFactor":0.5}}],"meshes":[{"name":"Cube.004","primitives":[{"attributes":{"POSITION":0,"NORMAL":1,"JOINTS_0":2,"WEIGHTS_0":3},"indices":4,"material":0},{"attributes":{"POSITION":5,"NORMAL":6,"JOINTS_0":7,"WEIGHTS_0":8},"indices":9,"material":1},{"attributes":{"POSITION":10,"NORMAL":11,"JOINTS_0":12,"WEIGHTS_0":13},"indices":14,"material":2},{"attributes":{"POSITION":15,"NORMAL":16,"JOINTS_0":17,"WEIGHTS_0":18},"indices":19,"material":3},{"attributes":{"POSITION":20,"NORMAL":21,"JOINTS_0":22,"WEIGHTS_0":23},"indices":24,"material":4},{"attributes":{"POSITION":25,"NORMAL":26,"JOINTS_0":27,"WEIGHTS_0":28},"indices":29,"material":5},{"attributes":{"POSITION":30,"NORMAL":31,"JOINTS_0":32,"WEIGHTS_0":33},"indices":34,"material":6},{"attributes":{"POSITION":35,"NORMAL":36,"JOINTS_0":37,"WEIGHTS_0":38},"indices":39,"material":7}]}],"skins":[{"inverseBindMatrices":40,"joints":[22,0,18,13,12,11,2,1,6,5,4,3,10,9,8,7,15,14,17,16,19,20,21],"name":"CharacterArmature"}],"accessors":[{"bufferView":0,"componentType":5126,"count":3112,"max":[1.619834065437317,3.1280739307403564,0.4916224181652069],"min":[-1.619834065437317,-0.018590589985251427,-0.4916224181652069],"type":"VEC3"},{"bufferView":1,"componentType":5126,"count":3112,"type":"VEC3"},{"bufferView":2,"componentType":5121,"count":3112,"type":"VEC4"},{"bufferView":3,"componentType":5126,"count":3112,"type":"VEC4"},{"bufferView":4,"componentType":5123,"count":4656,"type":"SCALAR"},{"bufferView":5,"componentType":5126,"count":88,"max":[0.5071604251861572,1.1419025659561157,0.2266329526901245],"min":[-0.5071604251861572,0.8605262637138367,-0.46260184049606323],"type":"VEC3"},{"bufferView":6,"componentType":5126,"count":88,"type":"VEC3"},{"bufferView":7,"componentType":5121,"count":88,"type":"VEC4"},{"bufferView":8,"componentType":5126,"count":88,"type":"VEC4"},{"bufferView":9,"componentType":5123,"count":132,"type":"SCALAR"},{"bufferView":10,"componentType":5126,"count":618,"max":[0.5479664206504822,2.0845773220062256,0.23045137524604797],"min":[-0.5479664206504822,0.9169876575469971,-0.444009393453598],"type":"VEC3"},{"bufferView":11,"componentType":5126,"count":618,"type":"VEC3"},{"bufferView":12,"componentType":5121,"count":618,"type":"VEC4"},{"bufferView":13,"componentType":5126,"count":618,"type":"VEC4"},{"bufferView":14,"componentType":5123,"count":918,"type":"SCALAR"},{"bufferView":15,"componentType":5126,"count":1434,"max":[1.1845545768737793,2.016878366470337,0.2266329526901245],"min":[-1.1845545768737793,0.3804648518562317,-0.347023069858551],"type":"VEC3"},{"bufferView":16,"componentType":5126,"count":1434,"type":"VEC3"},{"bufferView":17,"componentType":5121,"count":1434,"type":"VEC4"},{"bufferView":18,"componentType":5126,"count":1434,"type":"VEC4"},{"bufferView":19,"componentType":5123,"count":2130,"type":"SCALAR"},{"bufferView":20,"componentType":5126,"count":3480,"max":[0.48668020963668823,2.531865358352661,0.5646436214447021],"min":[-0.4866805076599121,2.0439393520355225,0.22420819103717804],"type":"VEC3"},{"bufferView":21,"componentType":5126,"count":3480,"type":"VEC3"},{"bufferView":22,"componentType":5121,"count":3480,"type":"VEC4"},{"bufferView":23,"componentType":5126,"count":3480,"type":"VEC4"},{"bufferView":24,"componentType":5123,"count":9720,"type":"SCALAR"},{"bufferView":25,"componentType":5126,"count":398,"max":[0.5055239200592041,3.194953203201294,0.552381157875061],"min":[-0.5055239200592041,2.2923762798309326,-0.5440495014190674],"type":"VEC3"},{"bufferView":26,"componentType":5126,"count":398,"type":"VEC3"},{"bufferView":27,"componentType":5121,"count":398,"type":"VEC4"},{"bufferView":28,"componentType":5126,"count":398,"type":"VEC4"},{"bufferView":29,"componentType":5123,"count":594,"type":"SCALAR"},{"bufferView":30,"componentType":5126,"count":256,"max":[0.6621372699737549,3.5349810123443604,0.1828867346048355],"min":[-0.6621372699737549,2.872826099395752,-0.17777641117572784],"type":"VEC3"},{"bufferView":31,"componentType":5126,"count":256,"type":"VEC3"},{"bufferView":32,"componentType":5121,"count":256,"type":"VEC4"},{"bufferView":33,"componentType":5126,"count":256,"type":"VEC4"},{"bufferView":34,"componentType":5123,"count":384,"type":"SCALAR"},{"bufferView":35,"componentType":5126,"count":454,"max":[0.3687567114830017,2.758138418197632,0.5015114545822144],"min":[-0.3687567114830017,2.4704513549804688,0.3853009343147278],"type":"VEC3"},{"bufferView":36,"componentType":5126,"count":454,"type":"VEC3"},{"bufferView":37,"componentType":5121,"count":454,"type":"VEC4"},{"bufferView":38,"componentType":5126,"count":454,"type":"VEC4"},{"bufferView":39,"componentType":5123,"count":960,"type":"SCALAR"},{"bufferView":40,"componentType":5126,"count":23,"type":"MAT4"}],"bufferViews":[{"buffer":0,"byteLength":37344,"byteOffset":0},{"buffer":0,"byteLength":37344,"byteOffset":37344},{"buffer":0,"byteLength":12448,"byteOffset":74688},{"buffer":0,"byteLength":49792,"byteOffset":87136},{"buffer":0,"byteLength":9312,"byteOffset":136928},{"buffer":0,"byteLength":1056,"byteOffset":146240},{"buffer":0,"byteLength":1056,"byteOffset":147296},{"buffer":0,"byteLength":352,"byteOffset":148352},{"buffer":0,"byteLength":1408,"byteOffset":148704},{"buffer":0,"byteLength":264,"byteOffset":150112},{"buffer":0,"byteLength":7416,"byteOffset":150376},{"buffer":0,"byteLength":7416,"byteOffset":157792},{"buffer":0,"byteLength":2472,"byteOffset":165208},{"buffer":0,"byteLength":9888,"byteOffset":167680},{"buffer":0,"byteLength":1836,"byteOffset":177568},{"buffer":0,"byteLength":17208,"byteOffset":179404},{"buffer":0,"byteLength":17208,"byteOffset":196612},{"buffer":0,"byteLength":5736,"byteOffset":213820},{"buffer":0,"byteLength":22944,"byteOffset":219556},{"buffer":0,"byteLength":4260,"byteOffset":242500},{"buffer":0,"byteLength":41760,"byteOffset":246760},{"buffer":0,"byteLength":41760,"byteOffset":288520},{"buffer":0,"byteLength":13920,"byteOffset":330280},{"buffer":0,"byteLength":55680,"byteOffset":344200},{"buffer":0,"byteLength":19440,"byteOffset":399880},{"buffer":0,"byteLength":4776,"byteOffset":419320},{"buffer":0,"byteLength":4776,"byteOffset":424096},{"buffer":0,"byteLength":1592,"byteOffset":428872},{"buffer":0,"byteLength":6368,"byteOffset":430464},{"buffer":0,"byteLength":1188,"byteOffset":436832},{"buffer":0,"byteLength":3072,"byteOffset":438020},{"buffer":0,"byteLength":3072,"byteOffset":441092},{"buffer":0,"byteLength":1024,"byteOffset":444164},{"buffer":0,"byteLength":4096,"byteOffset":445188},{"buffer":0,"byteLength":768,"byteOffset":449284},{"buffer":0,"byteLength":5448,"byteOffset":450052},{"buffer":0,"byteLength":5448,"byteOffset":455500},{"buffer":0,"byteLength":1816,"byteOffset":460948},{"buffer":0,"byteLength":7264,"byteOffset":462764},{"buffer":0,"byteLength":1920,"byteOffset":470028},{"buffer":0,"byteLength":1472,"byteOffset":471948}],"buffers":[{"byteLength":473420,"uri":"data:application/octet-stream;base64,"}]}