{"asset":{"generator":"Khronos glTF Blender I/O v1.6.16","version":"2.0"},"scene":0,"scenes":[{"name":"Scene","nodes":[24]}],"nodes":[{"name":"Foot.L","rotation":[6.612836386921117e-06,0.41113513708114624,0.9115745425224304,3.0694598081026925e-06],"scale":[1,1.0000001192092896,1.0000001192092896],"translation":[0.2654249668121338,0.057185567915439606,-0.457008957862854]},{"name":"Head","rotation":[-3.2585998344103473e-09,-0.0002754804154392332,-1.8468104823199383e-09,1],"scale":[0.9999999403953552,1,0.9999999403953552],"translation":[-1.4879462106875962e-08,0.1334977149963379,-7.784292321844077e-09]},{"children":[1],"name":"Neck","rotation":[-0.03198619931936264,2.4195982405217364e-05,0.00013982450764160603,0.999488353729248],"scale":[0.9999999403953552,0.9999998211860657,1],"translation":[1.4878088983039106e-08,0.4768909513950348,-1.38522491255344e-08]},{"name":"Fist.L","rotation":[0.00936207640916109,0.17389044165611267,-0.013174599036574364,0.9846324920654297],"scale":[1,1,1.0000001192092896],"translation":[2.498967477393421e-09,0.42534732818603516,1.355298362426538e-08]},{"children":[3],"name":"LowerArm.L","rotation":[0.10180187970399857,0.18688377737998962,-0.2694894075393677,0.9391945004463196],"translation":[4.9610671126743e-10,0.5282712578773499,-1.7404009611254878e-07]},{"children":[4],"name":"UpperArm.L","rotation":[-0.13879749178886414,-0.4089896082878113,-0.7925387024879456,0.4305172860622406],"translation":[-1.669050897490365e-09,0.2595316767692566,-2.1764886781738824e-08]},{"children":[5],"name":"Shoulder.L","rotation":[-0.030447853729128838,-0.01368186715990305,-0.4096798002719879,0.9116184711456299],"translation":[0.13320158421993256,0.14084097743034363,0.013521397486329079]},{"name":"Fist.R","rotation":[0.009362096898257732,-0.17389042675495148,0.013174592517316341,0.9846323728561401],"scale":[0.9999999403953552,0.9999999403953552,1],"translation":[-3.323440722624582e-08,0.42534708976745605,2.518810333640431e-07]},{"children":[7],"name":"LowerArm.R","rotation":[0.10180199891328812,-0.186883807182312,0.2694894075393677,0.9391945004463196],"scale":[1.0000001192092896,1,1],"translation":[2.1681771045223286e-08,0.5282711386680603,9.934440470260597e-08]},{"children":[8],"name":"UpperArm.R","rotation":[-0.1309647113084793,0.39627546072006226,0.8162320256233215,0.39947378635406494],"translation":[2.2122512177702447e-07,0.25953176617622375,2.982969249387679e-08]},{"children":[9],"name":"Shoulder.R","rotation":[-0.03044760599732399,0.013682461343705654,0.4096798300743103,0.9116184711456299],"scale":[0.9999999403953552,0.9999999403953552,0.9999998807907104],"translation":[-0.13313041627407074,0.14075449109077454,0.013461224734783173]},{"children":[2,6,10],"name":"Torso","rotation":[-0.004197635687887669,-0.0765695795416832,0.050842490047216415,0.9957583546638489],"scale":[1,1,0.9999999403953552],"translation":[-3.508660029183375e-11,0.2985784411430359,-8.124691142086249e-09]},{"children":[11],"name":"Abdomen","rotation":[0.07463376969099045,4.370121757801826e-07,4.616316573446966e-08,0.9972110390663147],"scale":[1.0000001192092896,1.0000001192092896,1.0000001192092896],"translation":[2.667343776407982e-11,0.3143380284309387,1.4015435922942743e-08]},{"children":[12],"name":"Hips","rotation":[-0.05076882615685463,-2.6754460691336135e-07,-2.273327304180839e-08,0.9987104535102844],"scale":[1.0000001192092896,1.000000238418579,1.0000001192092896],"translation":[-0.0014799340860918164,-0.06677472591400146,-0.04624227434396744]},{"name":"LowerLeg.L","rotation":[0.2897944450378418,0.003143777372315526,0.009313715621829033,0.9570385217666626],"scale":[1.0000001192092896,1.0000046491622925,0.999995768070221],"translation":[-4.26644568563006e-08,0.45380493998527527,-1.3521896491397456e-08]},{"children":[14],"name":"UpperLeg.L","rotation":[-0.9927823543548584,-0.01138693280518055,-0.0012119243619963527,0.11938224732875824],"scale":[0.9999978542327881,0.9999982714653015,0.9999493360519409],"translation":[0.25302907824516296,-0.016702113673090935,-0.05592375993728638]},{"name":"LowerLeg.R","rotation":[0.2064564973115921,-0.0023315423168241978,-0.009549516253173351,0.9784064292907715],"scale":[1.000000238418579,1.0000001192092896,0.9999984502792358],"translation":[7.482751129828102e-08,0.4538048207759857,-4.099929729051155e-09]},{"children":[16],"name":"UpperLeg.R","rotation":[0.9042739868164062,-0.011531723663210869,0.005247355904430151,0.42676475644111633],"scale":[0.9999979138374329,0.9999969005584717,0.9999500513076782],"translation":[-0.25471219420433044,-0.016701994463801384,-0.05592413619160652]},{"children":[13,15,17],"name":"Body","rotation":[-0.0005134227685630322,0.0026996894739568233,2.4635844965814613e-05,0.9999962449073792],"scale":[0.9999999403953552,0.9999999403953552,0.9999999403953552],"translation":[0.0034564111847430468,0.8677315711975098,0.09881485998630524]},{"name":"PoleTarget.L","rotation":[-3.5527037261633707e-15,1.1920936060505483e-07,0,1],"scale":[1,0.9999999403953552,0.9999999403953552],"translation":[0.2619941532611847,0.7245326638221741,0.9631469249725342]},{"name":"Foot.R","rotation":[3.880511940224096e-06,-0.8775460124015808,-0.4794924259185791,6.3112383941188455e-06],"scale":[1,1.0000001192092896,1],"translation":[-0.2628020942211151,0.08970806747674942,0.6268081068992615]},{"name":"PoleTarget.R","rotation":[-3.552723843195868e-15,-5.960464477539062e-07,3.3881317890172014e-21,1],"scale":[1,0.9999999403953552,0.9999999403953552],"translation":[-0.25937214493751526,0.7245326638221741,0.9631466865539551]},{"children":[0,18,19,20,21],"name":"Bone","rotation":[-2.9802322387695312e-08,2.3841855067985307e-07,8.470329472543003e-22,1],"scale":[1,0.9999998807907104,0.9999998807907104],"translation":[-0.0013114692410454154,-0.0024153697304427624,-0.00011468418961158022]},{"mesh":0,"name":"Body","skin":0},{"children":[23,22],"name":"CharacterArmature"}],"materials":[{"doubleSided":true,"name":"Skin","pbrMetallicRoughness":{"baseColorFactor":[0.04245200753211975,0.0765775665640831,0.034502893686294556,1],"metallicFactor":0,"roughnessFactor":0.5}},{"doubleSided":true,"name":"Clothes","pbrMetallicRoughness":{"baseColorFactor":[0.08650047332048416,0.057805441319942474,0.2015562802553177,1],"metallicFactor":0,"roughnessFactor":0.5}},{"doubleSided":true,"name":"Guts","pbrMetallicRoughness":{"baseColorFactor":[0.23301143944263458,0.0328349694609642,0.004006546922028065,1],"metallicFactor":0,"roughnessFactor":0.5}},{"doubleSided":true,"name":"Pants","pbrMetallicRoughness":{"baseColorFactor":[0.33431944251060486,0.29224514961242676,0.16704382002353668,1],"metallicFactor":0,"roughnessFactor":0.5}},{"doubleSided":true,"name":"DarkClothes","pbrMetallicRoughness":{"baseColorFactor":[0.04235517978668213,0.02903706021606922,0.09462349116802216,1],"metallicFactor":0,"roughnessFactor":0.5}},{"doubleSided":true,"name":"Bones","pbrMetallicRoughness":{"baseColorFactor":[0.3423786163330078,0.29983246326446533,0.21136511862277985,1],"metallicFactor":0,"roughnessFactor":0.5}},{"doubleSided":true,"name":"Brain","pbrMetallicRoughness":{"baseColorFactor":[0.38437071442604065,0.17244680225849152,0.2247209995985031,1],"metallicFactor":0,"roughnessFactor":0.5}},{"doubleSided":true,"name":"Face","pbrMetallicRoughness":{"baseColorFactor":[0.020377911627292633,0.020377911627292633,0.01943129114806652,1],"metallicFactor":0,"roughnessFactor":0.5}}],"meshes":[{"name":"Cube.004","primitives":[{"attributes":{"POSITION":0,"NORMAL":1,"JOINTS_0":2,"WEIGHTS_0":3},"indices":4,"material":0},{"attributes":{"POSITION":5,"NORMAL":6,"JOINTS_0":7,"WEIGHTS_0":8},"indices":9,"material":1},{"attributes":{"POSITION":10,"NORMAL":11,"JOINTS_0":12,"WEIGHTS_0":13},"indices":14,"material":2},{"attributes":{"POSITION":15,"NORMAL":16,"JOINTS_0":17,"WEIGHTS_0":18},"indices":19,"material":3},{"attributes":{"POSITION":20,"NORMAL":21,"JOINTS_0":22,"WEIGHTS_0":23},"indices":24,"material":4},{"attributes":{"POSITION":25,"NORMAL":26,"JOINTS_0":27,"WEIGHTS_0":28},"indices":29,"material":5},{"attributes":{"POSITION":30,"NORMAL":31,"JOINTS_0":32,"WEIGHTS_0":33},"indices":34,"material":6},{"attributes":{"POSITION":35,"NORMAL":36,"JOINTS_0":37,"WEIGHTS_0":38},"indices":39,"material":7}]}],"skins":[{"inverseBindMatrices":40,"joints":[22,0,18,13,12,11,2,1,6,5,4,3,10,9,8,7,15,14,17,16,19,20,21],"name":"CharacterArmature"}],"accessors":[{"bufferView":0,"componentType":5126,"count":3012,"max":[1.619834065437317,2.8565123081207275,0.4916224181652069],"min":[-1.619834065437317,-0.018590589985251427,-0.4916224181652069],"type":"VEC3"},{"bufferView":1,"componentType":5126,"count":3012,"type":"VEC3"},{"bufferView":2,"componentType":5121,"count":3012,"type":"VEC4"},{"bufferView":3,"componentType":5126,"count":3012,"type":"VEC4"},{"bufferView":4,"componentType":5123,"count":4488,"type":"SCALAR"},{"bufferView":5,"componentType":5126,"count":710,"max":[0.7316836714744568,2.0457041263580322,0.251863956451416],"min":[-0.7316836714744568,1.182011604309082,-0.3323665261268616],"type":"VEC3"},{"bufferView":6,"componentType":5126,"count":710,"type":"VEC3"},{"bufferView":7,"componentType":5121,"count":710,"type":"VEC4"},{"bufferView":8,"componentType":5126,"count":710,"type":"VEC4"},{"bufferView":9,"componentType":5123,"count":1062,"type":"SCALAR"},{"bufferView":10,"componentType":5126,"count":408,"max":[1.179739236831665,2.854661703109741,0.4403088390827179],"min":[-1.179739236831665,0.15235912799835205,-0.4403088390827179],"type":"VEC3"},{"bufferView":11,"componentType":5126,"count":408,"type":"VEC3"},{"bufferView":12,"componentType":5121,"count":408,"type":"VEC4"},{"bufferView":13,"componentType":5126,"count":408,"type":"VEC4"},{"bufferView":14,"componentType":5123,"count":612,"type":"SCALAR"},{"bufferView":15,"componentType":5126,"count":480,"max":[0.42705875635147095,1.2064769268035889,0.21221479773521423],"min":[-0.42705875635147095,0.6405717730522156,-0.3195708096027374],"type":"VEC3"},{"bufferView":16,"componentType":5126,"count":480,"type":"VEC3"},{"bufferView":17,"componentType":5121,"count":480,"type":"VEC4"},{"bufferView":18,"componentType":5126,"count":480,"type":"VEC4"},{"bufferView":19,"componentType":5123,"count":720,"type":"SCALAR"},{"bufferView":20,"componentType":5126,"count":120,"max":[0.7576904892921448,2.0457041263580322,0.24627622961997986],"min":[-0.7576904892921448,1.182011604309082,-0.1552291363477707],"type":"VEC3"},{"bufferView":21,"componentType":5126,"count":120,"type":"VEC3"},{"bufferView":22,"componentType":5121,"count":120,"type":"VEC4"},{"bufferView":23,"componentType":5126,"count":120,"type":"VEC4"},{"bufferView":24,"componentType":5123,"count":168,"type":"SCALAR"},{"bufferView":25,"componentType":5126,"count":2432,"max":[1.2578554153442383,1.9078917503356934,0.02802656777203083],"min":[-1.2578554153442383,0.09585629403591156,-0.0709010437130928],"type":"VEC3"},{"bufferView":26,"componentType":5126,"count":2432,"type":"VEC3"},{"bufferView":27,"componentType":5121,"count":2432,"type":"VEC4"},{"bufferView":28,"componentType":5126,"count":2432,"type":"VEC4"},{"bufferView":29,"componentType":5123,"count":3648,"type":"SCALAR"},{"bufferView":30,"componentType":5126,"count":320,"max":[0.42956095933914185,3.087653160095215,0.40833550691604614],"min":[-0.42956095933914185,2.7217905521392822,-0.40833550691604614],"type":"VEC3"},{"bufferView":31,"componentType":5126,"count":320,"type":"VEC3"},{"bufferView":32,"componentType":5121,"count":320,"type":"VEC4"},{"bufferView":33,"componentType":5126,"count":320,"type":"VEC4"},{"bufferView":34,"componentType":5123,"count":480,"type":"SCALAR"},{"bufferView":35,"componentType":5126,"count":168,"max":[0.3601473569869995,2.7866621017456055,0.5015114545822144],"min":[-0.35689079761505127,2.4704513549804688,0.3853009343147278],"type":"VEC3"},{"bufferView":36,"componentType":5126,"count":168,"type":"VEC3"},{"bufferView":37,"componentType":5121,"count":168,"type":"VEC4"},{"bufferView":38,"componentType":5126,"count":168,"type":"VEC4"},{"bufferView":39,"componentType":5123,"count":960,"type":"SCALAR"},{"bufferView":40,"componentType":5126,"count":23,"type":"MAT4"}],"bufferViews":[{"buffer":0,"byteLength":36144,"byteOffset":0},{"buffer":0,"byteLength":36144,"byteOffset":36144},{"buffer":0,"byteLength":12048,"byteOffset":72288},{"buffer":0,"byteLength":48192,"byteOffset":84336},{"buffer":0,"byteLength":8976,"byteOffset":132528},{"buffer":0,"byteLength":8520,"byteOffset":141504},{"buffer":0,"byteLength":8520,"byteOffset":150024},{"buffer":0,"byteLength":2840,"byteOffset":158544},{"buffer":0,"byteLength":11360,"byteOffset":161384},{"buffer":0,"byteLength":2124,"byteOffset":172744},{"buffer":0,"byteLength":4896,"byteOffset":174868},{"buffer":0,"byteLength":4896,"byteOffset":179764},{"buffer":0,"byteLength":1632,"byteOffset":184660},{"buffer":0,"byteLength":6528,"byteOffset":186292},{"buffer":0,"byteLength":1224,"byteOffset":192820},{"buffer":0,"byteLength":5760,"byteOffset":194044},{"buffer":0,"byteLength":5760,"byteOffset":199804},{"buffer":0,"byteLength":1920,"byteOffset":205564},{"buffer":0,"byteLength":7680,"byteOffset":207484},{"buffer":0,"byteLength":1440,"byteOffset":215164},{"buffer":0,"byteLength":1440,"byteOffset":216604},{"buffer":0,"byteLength":1440,"byteOffset":218044},{"buffer":0,"byteLength":480,"byteOffset":219484},{"buffer":0,"byteLength":1920,"byteOffset":219964},{"buffer":0,"byteLength":336,"byteOffset":221884},{"buffer":0,"byteLength":29184,"byteOffset":222220},{"buffer":0,"byteLength":29184,"byteOffset":251404},{"buffer":0,"byteLength":9728,"byteOffset":280588},{"buffer":0,"byteLength":38912,"byteOffset":290316},{"buffer":0,"byteLength":7296,"byteOffset":329228},{"buffer":0,"byteLength":3840,"byteOffset":336524},{"buffer":0,"byteLength":3840,"byteOffset":340364},{"buffer":0,"byteLength":1280,"byteOffset":344204},{"buffer":0,"byteLength":5120,"byteOffset":345484},{"buffer":0,"byteLength":960,"byteOffset":350604},{"buffer":0,"byteLength":2016,"byteOffset":351564},{"buffer":0,"byteLength":2016,"byteOffset":353580},{"buffer":0,"byteLength":672,"byteOffset":355596},{"buffer":0,"byteLength":2688,"byteOffset":356268},{"buffer":0,"byteLength":1920,"byteOffset":358956},{"buffer":0,"byteLength":1472,"byteOffset":360876}],"buffers":[{"byteLength":362348,"uri":"data:application/octet-stream;base64,"}]}